<svg width="46" height="45" viewBox="0 0 46 45" fill="none" xmlns="http://www.w3.org/2000/svg">
<path d="M26.5859 1.483H32.8639V0H26.1889C26.0668 1.74615e-05 25.9467 0.0301426 25.839 0.0877056C25.7314 0.145269 25.6396 0.228492 25.5719 0.33L24.0889 2.555L25.3229 3.378L26.5859 1.483Z" fill="white"/>
<path d="M19.8586 43.0161H13.5806V44.4991H20.2556C20.3776 44.4991 20.4978 44.469 20.6054 44.4114C20.713 44.3538 20.8048 44.2706 20.8726 44.1691L22.3556 41.9441L21.1216 41.1211L19.8586 43.0161Z" fill="white"/>
<path d="M31.3807 16.317C28.8008 16.3139 26.2708 17.0274 24.0727 18.378L23.6877 17.839C23.85 17.499 23.9939 17.1505 24.1187 16.795L27.0557 16.306C27.2286 16.2769 27.3856 16.1876 27.4989 16.0538C27.6122 15.92 27.6745 15.7503 27.6747 15.575V11.125C27.6745 10.9497 27.6122 10.7801 27.4989 10.6462C27.3856 10.5124 27.2286 10.4231 27.0557 10.394L24.1167 9.90001C23.9919 9.5445 23.848 9.19599 23.6857 8.85601L25.4157 6.43401C25.5175 6.29118 25.5655 6.11688 25.551 5.94205C25.5365 5.76722 25.4606 5.60316 25.3367 5.47901L22.1887 2.33701C22.0645 2.21307 21.9004 2.13713 21.7256 2.12267C21.5508 2.10821 21.3765 2.15616 21.2337 2.25801L18.8117 3.98801C18.4732 3.82682 18.1264 3.68395 17.7727 3.56001L17.2837 0.623009C17.2553 0.448513 17.1656 0.289872 17.0307 0.175655C16.8957 0.0614381 16.7244 -0.000849717 16.5477 8.75674e-06H12.0977C11.9223 0.000182278 11.7527 0.0624435 11.6189 0.175752C11.4851 0.289061 11.3957 0.446095 11.3667 0.619009L10.8727 3.55601C10.5171 3.68077 10.1686 3.82464 9.82866 3.98701L7.41166 2.25801C7.26882 2.15616 7.09452 2.10821 6.91969 2.12267C6.74486 2.13713 6.58081 2.21307 6.45666 2.33701L3.30966 5.48401C3.18572 5.60816 3.10978 5.77222 3.09532 5.94705C3.08086 6.12188 3.12881 6.29618 3.23066 6.43901L4.97266 8.87201C4.81 9.20627 4.66644 9.54949 4.54266 9.90001L1.59166 10.392C1.4184 10.4211 1.2611 10.5108 1.14775 10.645C1.0344 10.7792 0.972358 10.9493 0.972657 11.125V15.575C0.972831 15.7503 1.03509 15.92 1.1484 16.0538C1.26171 16.1876 1.41874 16.2769 1.59166 16.306L4.54166 16.798C4.66331 17.1509 4.80282 17.4973 4.95966 17.836L3.22966 20.261C3.12781 20.4038 3.07986 20.5781 3.09432 20.753C3.10878 20.9278 3.18472 21.0919 3.30866 21.216L6.45566 24.363C6.57981 24.4869 6.74386 24.5629 6.91869 24.5773C7.09352 24.5918 7.26782 24.5439 7.41066 24.442L9.83266 22.712C10.1726 22.8744 10.5211 23.0183 10.8767 23.143L11.3657 26.08C11.3947 26.2529 11.4841 26.41 11.6179 26.5233C11.7517 26.6366 11.9213 26.6988 12.0967 26.699H16.5467C16.722 26.6988 16.8916 26.6366 17.0254 26.5233C17.1592 26.41 17.2486 26.2529 17.2777 26.08L17.7667 23.143C18.1222 23.0183 18.4707 22.8744 18.8107 22.712L19.3497 23.097C17.9982 25.2959 17.2843 27.827 17.2877 30.408C17.2875 33.1951 18.1137 35.9197 19.662 38.2373C21.2103 40.5548 23.4111 42.3612 25.986 43.4279C28.5609 44.4947 31.3943 44.774 34.1279 44.2304C36.8615 43.6869 39.3726 42.3449 41.3435 40.3743C43.3144 38.4036 44.6567 35.8927 45.2007 33.1592C45.7446 30.4257 45.4658 27.5922 44.3993 25.0172C43.3329 22.4421 41.5269 20.2411 39.2096 18.6925C36.8923 17.1439 34.1678 16.3172 31.3807 16.317ZM18.5267 21.195C18.0064 21.473 17.4597 21.6985 16.8947 21.868C16.7619 21.9078 16.6429 21.9839 16.5511 22.0878C16.4594 22.1918 16.3986 22.3193 16.3757 22.456L15.9197 25.216H12.7257L12.2657 22.456C12.2427 22.3193 12.1819 22.1918 12.0902 22.0878C11.9985 21.9839 11.8795 21.9078 11.7467 21.868C11.1816 21.6985 10.6349 21.473 10.1147 21.195C9.99263 21.1295 9.85472 21.0995 9.71652 21.1084C9.57832 21.1172 9.44535 21.1645 9.33266 21.245L7.05666 22.87L4.80266 20.612L6.42866 18.335C6.50913 18.2223 6.55647 18.0893 6.5653 17.9511C6.57414 17.813 6.54413 17.675 6.47866 17.553C6.20083 17.0197 5.97157 16.4624 5.79366 15.888C5.74921 15.7637 5.6724 15.6535 5.57115 15.5687C5.46989 15.484 5.34787 15.4278 5.21766 15.406L2.45666 14.946V11.753L5.21666 11.293C5.34687 11.2712 5.46889 11.215 5.57015 11.1303C5.6714 11.0455 5.74821 10.9353 5.79266 10.811C5.98277 10.2275 6.21677 9.6592 6.49266 9.11101C6.54923 8.99152 6.57285 8.85908 6.56107 8.72739C6.54929 8.59571 6.50254 8.46956 6.42566 8.36201L4.80266 6.08801L7.06066 3.83001L9.33766 5.45601C9.45035 5.53649 9.58332 5.58382 9.72152 5.59266C9.85972 5.60149 9.99763 5.57148 10.1197 5.50601C10.6399 5.22799 11.1866 5.00255 11.7517 4.83301C11.8845 4.79326 12.0035 4.71711 12.0952 4.61318C12.1869 4.50926 12.2477 4.38171 12.2707 4.24501L12.7267 1.48501H15.9207L16.3807 4.24501C16.4036 4.38171 16.4644 4.50926 16.5561 4.61318C16.6479 4.71711 16.7669 4.79326 16.8997 4.83301C17.4647 5.00255 18.0114 5.22799 18.5317 5.50601C18.6537 5.57148 18.7916 5.60149 18.9298 5.59266C19.068 5.58382 19.201 5.53649 19.3137 5.45601L21.5887 3.83001L23.8467 6.08801L22.2207 8.36501C22.1402 8.4777 22.0928 8.61067 22.084 8.74887C22.0752 8.88707 22.1052 9.02498 22.1707 9.14701C22.4487 9.66729 22.6741 10.214 22.8437 10.779C22.8834 10.9118 22.9596 11.0308 23.0635 11.1225C23.1674 11.2143 23.295 11.2751 23.4317 11.298L26.1917 11.758V14.952L23.4317 15.412C23.295 15.435 23.1674 15.4957 23.0635 15.5875C22.9596 15.6792 22.8834 15.7982 22.8437 15.931C22.6741 16.496 22.4487 17.0427 22.1707 17.563C22.1052 17.685 22.0752 17.8229 22.084 17.9611C22.0928 18.0993 22.1402 18.2323 22.2207 18.345L23.8467 20.622L21.5887 22.88L19.3117 21.254C19.1995 21.1715 19.0664 21.1223 18.9276 21.1118C18.7888 21.1014 18.6499 21.1302 18.5267 21.195ZM32.1267 42.979V40.792H30.6397V42.979C27.5622 42.7958 24.6588 41.4907 22.4788 39.3108C20.2989 37.1309 18.9939 34.2274 18.8107 31.15H20.9977V29.667H18.7977C18.9113 27.6503 19.5151 25.6917 20.5567 23.961L21.2307 24.442C21.3735 24.5439 21.5478 24.5918 21.7226 24.5773C21.8975 24.5629 22.0615 24.4869 22.1857 24.363L25.3327 21.216C25.4566 21.0919 25.5325 20.9278 25.547 20.753C25.5615 20.5781 25.5135 20.4038 25.4117 20.261L24.9307 19.587C26.6613 18.5454 28.6199 17.9417 30.6367 17.828V20.028H32.1227V17.838C35.2001 18.0212 38.1035 19.3263 40.2835 21.5062C42.4634 23.6861 43.7685 26.5896 43.9517 29.667H41.7647V31.15H43.9517C43.7685 34.2274 42.4634 37.1309 40.2835 39.3108C38.1035 41.4907 35.2001 42.7958 32.1227 42.979H32.1267Z" fill="white"/>
<path d="M32.1227 21.5078H30.6396V30.4078C30.6396 30.6046 30.7178 30.7933 30.857 30.9325C30.9961 31.0716 31.1849 31.1498 31.3816 31.1498H37.3146V29.6658H32.1227V21.5078Z" fill="white"/>
<path d="M18.0305 11.1245H15.0645V6.67447C15.0643 6.50517 15.0061 6.34104 14.8997 6.20933C14.7934 6.07763 14.6451 5.98627 14.4796 5.95042C14.3142 5.91457 14.1414 5.93639 13.9901 6.01225C13.8387 6.08811 13.7178 6.21346 13.6475 6.36748L9.93954 14.5255C9.88819 14.6385 9.866 14.7625 9.875 14.8863C9.884 15.0101 9.92391 15.1296 9.99107 15.234C10.0582 15.3384 10.1505 15.4242 10.2594 15.4837C10.3683 15.5432 10.4904 15.5744 10.6145 15.5745H13.5815V20.0245C13.5815 20.1938 13.6395 20.3581 13.7457 20.49C13.8519 20.6218 14.0001 20.7134 14.1655 20.7495C14.2172 20.7602 14.2698 20.7656 14.3225 20.7655C14.4649 20.7654 14.6043 20.7243 14.724 20.6472C14.8437 20.57 14.9386 20.4601 14.9975 20.3305L18.7055 12.1725C18.7569 12.0595 18.7791 11.9354 18.7701 11.8117C18.7611 11.6879 18.7212 11.5683 18.654 11.464C18.5868 11.3596 18.4946 11.2737 18.3857 11.2143C18.2767 11.1548 18.1546 11.1236 18.0305 11.1235V11.1245ZM15.0635 16.6005V14.8325C15.0635 14.6357 14.9854 14.447 14.8462 14.3078C14.7071 14.1686 14.5183 14.0905 14.3215 14.0905H11.7665L13.5815 10.0985V11.8655C13.5815 12.0623 13.6597 12.251 13.7989 12.3901C13.938 12.5293 14.1267 12.6075 14.3235 12.6075H16.8805L15.0635 16.6005Z" fill="white"/>
<path d="M14.8608 3.04297H13.3398V4.56397H14.8608V3.04297Z" fill="white"/>
<path d="M7.50518 5.48261L6.45654 6.53125L7.50518 7.57989L8.55382 6.53125L7.50518 5.48261Z" fill="white"/>
<path d="M5.35254 12.5508H3.83154V14.0718H5.35254V12.5508Z" fill="white"/>
<path d="M7.50421 19.1193L6.45557 20.168L7.50421 21.2166L8.55285 20.168L7.50421 19.1193Z" fill="white"/>
<path d="M14.8608 22.0586H13.3398V23.5796H14.8608V22.0586Z" fill="white"/>
<path d="M21.1395 19.1193L20.0908 20.168L21.1395 21.2166L22.1881 20.168L21.1395 19.1193Z" fill="white"/>
<path d="M24.7495 12.5508H23.2285V14.0718H24.7495V12.5508Z" fill="white"/>
<path d="M21.1404 5.48261L20.0918 6.53125L21.1404 7.57989L22.1891 6.53125L21.1404 5.48261Z" fill="white"/>
<path d="M38.7976 3.70703C38.2107 3.70703 37.6371 3.88104 37.1492 4.20706C36.6613 4.53308 36.281 4.99646 36.0564 5.53861C35.8319 6.08076 35.7731 6.67732 35.8876 7.25286C36.0021 7.82841 36.2846 8.35708 36.6996 8.77202C37.1145 9.18696 37.6432 9.46954 38.2187 9.58402C38.7943 9.6985 39.3908 9.63975 39.933 9.41518C40.4751 9.19062 40.9385 8.81033 41.2645 8.32241C41.5906 7.83449 41.7646 7.26085 41.7646 6.67403C41.7646 5.88713 41.452 5.13247 40.8956 4.57605C40.3391 4.01963 39.5845 3.70703 38.7976 3.70703ZM38.7976 8.15703C38.5043 8.15703 38.2175 8.07006 37.9737 7.9071C37.7298 7.74415 37.5397 7.51253 37.4275 7.24155C37.3152 6.97057 37.2858 6.67239 37.3431 6.38471C37.4003 6.09704 37.5415 5.83279 37.7489 5.62539C37.9563 5.41799 38.2206 5.27675 38.5082 5.21953C38.7959 5.1623 39.0941 5.19167 39.3651 5.30392C39.6361 5.41616 39.8677 5.60624 40.0306 5.85012C40.1936 6.094 40.2806 6.38072 40.2806 6.67403C40.2806 6.86878 40.2422 7.06162 40.1677 7.24155C40.0932 7.42148 39.9839 7.58496 39.8462 7.72267C39.7085 7.86038 39.545 7.96962 39.3651 8.04414C39.1852 8.11867 38.9923 8.15703 38.7976 8.15703Z" fill="white"/>
<path d="M44.9116 4.472L44.4116 4.348L44.6746 3.91C44.7611 3.76813 44.7974 3.60133 44.7778 3.43634C44.7583 3.27134 44.6839 3.11769 44.5666 3L42.4666 0.9C42.3496 0.783026 42.197 0.708473 42.0328 0.688181C41.8687 0.667889 41.7025 0.703022 41.5606 0.788L41.1226 1.058L40.9986 0.558C40.9578 0.398519 40.8651 0.257143 40.7351 0.156125C40.6051 0.0551063 40.4452 0.00018285 40.2806 0H37.3146C37.1494 0.000130319 36.989 0.0553824 36.8587 0.157002C36.7285 0.258622 36.6359 0.400797 36.5956 0.561L36.4716 1.061L36.0336 0.798C35.8916 0.711263 35.7246 0.674757 35.5594 0.694343C35.3942 0.713929 35.2403 0.788472 35.1226 0.906L33.0286 3C32.9116 3.11693 32.837 3.26959 32.8168 3.43374C32.7965 3.59788 32.8316 3.7641 32.9166 3.906L33.1796 4.344L32.6796 4.468C32.5193 4.50926 32.3774 4.60294 32.2765 4.73413C32.1755 4.86532 32.1214 5.02648 32.1226 5.192V8.159C32.1227 8.32419 32.178 8.48462 32.2796 8.61486C32.3812 8.7451 32.5234 8.8377 32.6836 8.878L33.1836 9.002L32.9206 9.44C32.8356 9.5819 32.8005 9.74812 32.8208 9.91226C32.8411 10.0764 32.9156 10.2291 33.0326 10.346L35.1326 12.446C35.2495 12.563 35.4022 12.6375 35.5663 12.6578C35.7305 12.6781 35.8967 12.643 36.0386 12.558L36.4766 12.295L36.6006 12.795C36.6409 12.9552 36.7335 13.0974 36.8637 13.199C36.994 13.3006 37.1544 13.3559 37.3196 13.356H40.2866C40.4518 13.3559 40.6122 13.3006 40.7424 13.199C40.8727 13.0974 40.9653 12.9552 41.0056 12.795L41.1296 12.295L41.5676 12.558C41.7095 12.643 41.8757 12.6781 42.0398 12.6578C42.204 12.6375 42.3566 12.563 42.4736 12.446L44.5736 10.346C44.6906 10.2291 44.7651 10.0764 44.7854 9.91226C44.8057 9.74812 44.7706 9.5819 44.6856 9.44L44.4146 9L44.9146 8.876C45.0748 8.8357 45.217 8.7431 45.3186 8.61286C45.4202 8.48262 45.4754 8.32219 45.4756 8.157V5.192C45.4754 5.02681 45.4202 4.86638 45.3186 4.73614C45.217 4.6059 45.0748 4.5133 44.9146 4.473L44.9116 4.472ZM43.9896 7.579L43.0836 7.802C42.9715 7.83035 42.8675 7.88452 42.7801 7.96017C42.6926 8.03583 42.624 8.13088 42.5798 8.23774C42.5356 8.3446 42.517 8.46031 42.5255 8.57565C42.534 8.69098 42.5693 8.80274 42.6286 8.902L43.1086 9.702L41.8296 10.981L41.0296 10.501C40.9303 10.4417 40.8186 10.4064 40.7032 10.3979C40.5879 10.3895 40.4722 10.4081 40.3653 10.4523C40.2585 10.4965 40.1634 10.565 40.0878 10.6525C40.0121 10.74 39.9579 10.8439 39.9296 10.956L39.7036 11.865H37.8936L37.6716 10.959C37.6432 10.8469 37.5891 10.743 37.5134 10.6555C37.4378 10.568 37.3427 10.4995 37.2358 10.4553C37.129 10.4111 37.0133 10.3925 36.8979 10.4009C36.7826 10.4094 36.6708 10.4447 36.5716 10.504L35.7716 10.984L34.4926 9.705L34.9726 8.905C35.0319 8.80573 35.0672 8.69398 35.0757 8.57864C35.0841 8.46331 35.0655 8.3476 35.0213 8.24074C34.9771 8.13388 34.9085 8.03883 34.8211 7.96317C34.7336 7.88752 34.6297 7.83335 34.5176 7.805L33.6086 7.579V5.771L34.5146 5.548C34.6267 5.51965 34.7306 5.46548 34.8181 5.38983C34.9055 5.31417 34.9741 5.21912 35.0183 5.11226C35.0625 5.0054 35.0811 4.88969 35.0727 4.77435C35.0642 4.65902 35.0289 4.54727 34.9696 4.448L34.4896 3.648L35.7686 2.369L36.5686 2.849C36.6679 2.90832 36.7797 2.94359 36.8951 2.95199C37.0105 2.96039 37.1263 2.94169 37.2332 2.89738C37.34 2.85308 37.4351 2.78439 37.5107 2.69682C37.5863 2.60924 37.6403 2.5052 37.6686 2.393L37.8906 1.493H39.6986L39.9206 2.393C39.9488 2.5052 40.0029 2.60924 40.0785 2.69682C40.1541 2.78439 40.2491 2.85308 40.356 2.89738C40.4629 2.94169 40.5786 2.96039 40.694 2.95199C40.8094 2.94359 40.9212 2.90832 41.0206 2.849L41.8206 2.369L43.0996 3.648L42.6196 4.448C42.5603 4.54727 42.525 4.65902 42.5165 4.77435C42.508 4.88969 42.5266 5.0054 42.5708 5.11226C42.615 5.21912 42.6836 5.31417 42.7711 5.38983C42.8585 5.46548 42.9625 5.51965 43.0746 5.548L43.9806 5.771L43.9896 7.579Z" fill="white"/>
<path d="M7.64767 34.8594C7.06085 34.8594 6.48721 35.0334 5.99929 35.3594C5.51137 35.6854 5.13108 36.1488 4.90651 36.691C4.68195 37.2331 4.62319 37.8297 4.73768 38.4052C4.85216 38.9808 5.13474 39.5094 5.54968 39.9244C5.96462 40.3393 6.49329 40.6219 7.06883 40.7364C7.64437 40.8508 8.24094 40.7921 8.78309 40.5675C9.32524 40.343 9.78862 39.9627 10.1146 39.4748C10.4407 38.9868 10.6147 38.4132 10.6147 37.8264C10.6147 37.0395 10.3021 36.2848 9.74565 35.7284C9.18923 35.172 8.43456 34.8594 7.64767 34.8594ZM7.64767 39.3094C7.35436 39.3094 7.06763 39.2224 6.82375 39.0594C6.57988 38.8965 6.3898 38.6649 6.27755 38.3939C6.16531 38.1229 6.13594 37.8247 6.19316 37.5371C6.25038 37.2494 6.39162 36.9851 6.59903 36.7777C6.80643 36.5703 7.07067 36.4291 7.35835 36.3719C7.64602 36.3147 7.9442 36.344 8.21518 36.4563C8.48617 36.5685 8.71778 36.7586 8.88073 37.0025C9.04369 37.2463 9.13067 37.5331 9.13067 37.8264C9.13067 38.2197 8.97442 38.5969 8.6963 38.875C8.41819 39.1531 8.04098 39.3094 7.64767 39.3094Z" fill="white"/>
<path d="M13.5287 40.5884L13.2647 40.1484L13.7647 40.0244C13.9249 39.9841 14.0671 39.8915 14.1687 39.7613C14.2703 39.6311 14.3255 39.4706 14.3257 39.3054V36.3404C14.3255 36.1752 14.2703 36.0148 14.1687 35.8846C14.0671 35.7543 13.9249 35.6617 13.7647 35.6214L13.2647 35.4974L13.5277 35.0594C13.614 34.9171 13.65 34.7499 13.6299 34.5847C13.6098 34.4195 13.5347 34.2658 13.4167 34.1484L11.3167 32.0484C11.1997 31.9315 11.0471 31.8569 10.8829 31.8366C10.7188 31.8163 10.5526 31.8515 10.4107 31.9364L9.97268 32.2064L9.84868 31.7064C9.80785 31.547 9.71515 31.4056 9.58517 31.3046C9.45519 31.2035 9.2953 31.1486 9.13068 31.1484H6.16468C5.99948 31.1486 5.83906 31.2038 5.70882 31.3054C5.57858 31.4071 5.48597 31.5492 5.44568 31.7094L5.32168 32.2094L4.88368 31.9464C4.7417 31.8597 4.5747 31.8232 4.40949 31.8428C4.24427 31.8624 4.09043 31.9369 3.97268 32.0544L1.87868 34.1484C1.7617 34.2654 1.68715 34.418 1.66686 34.5822C1.64657 34.7463 1.6817 34.9125 1.76668 35.0544L2.02968 35.4924L1.52968 35.6164C1.36938 35.6577 1.22749 35.7514 1.12656 35.8826C1.02563 36.0138 0.971465 36.1749 0.972676 36.3404V39.3074C0.972806 39.4726 1.02806 39.6331 1.12968 39.7633C1.2313 39.8935 1.37347 39.9861 1.53368 40.0264L2.03368 40.1504L1.77068 40.5884C1.6857 40.7303 1.65057 40.8966 1.67086 41.0607C1.69115 41.2248 1.7657 41.3775 1.88268 41.4944L3.98268 43.5944C4.09961 43.7114 4.25227 43.786 4.41641 43.8063C4.58056 43.8265 4.74678 43.7914 4.88868 43.7064L5.32668 43.4434L5.45068 43.9434C5.49097 44.1036 5.58358 44.2458 5.71382 44.3474C5.84406 44.4491 6.00448 44.5043 6.16968 44.5044H9.13668C9.30187 44.5043 9.4623 44.4491 9.59254 44.3474C9.72278 44.2458 9.81538 44.1036 9.85568 43.9434L9.97968 43.4434L10.4177 43.7064C10.5596 43.7914 10.7258 43.8265 10.8899 43.8063C11.0541 43.786 11.2067 43.7114 11.3237 43.5944L13.4237 41.4944C13.5395 41.3767 13.6128 41.2236 13.6318 41.0595C13.6508 40.8954 13.6145 40.7296 13.5287 40.5884ZM12.8397 38.7274L11.9337 38.9494C11.8216 38.9778 11.7176 39.032 11.6302 39.1076C11.5427 39.1833 11.4741 39.2783 11.4299 39.3852C11.3857 39.492 11.3671 39.6078 11.3756 39.7231C11.3841 39.8384 11.4194 39.9502 11.4787 40.0494L11.9587 40.8494L10.6797 42.1284L9.87968 41.6484C9.78041 41.5891 9.66865 41.5538 9.55332 41.5453C9.43799 41.5369 9.32228 41.5555 9.21542 41.5997C9.10855 41.6439 9.0135 41.7125 8.93785 41.7999C8.86219 41.8874 8.80803 41.9913 8.77968 42.1034L8.55368 43.0124H6.74368L6.52068 42.1064C6.49232 41.9943 6.43816 41.8904 6.3625 41.8029C6.28685 41.7155 6.1918 41.6469 6.08494 41.6027C5.97808 41.5585 5.86236 41.5399 5.74703 41.5484C5.6317 41.5568 5.51994 41.5921 5.42068 41.6514L4.62068 42.1314L3.33668 40.8554L3.81668 40.0554C3.876 39.9562 3.9113 39.8444 3.91976 39.7291C3.92823 39.6138 3.90961 39.498 3.86541 39.3912C3.82121 39.2843 3.75264 39.1893 3.66518 39.1136C3.57772 39.038 3.47379 38.9838 3.36168 38.9554L2.45568 38.7294V36.9194L3.36168 36.6974C3.47379 36.6691 3.57772 36.6149 3.66518 36.5393C3.75264 36.4636 3.82121 36.3686 3.86541 36.2617C3.90961 36.1548 3.92823 36.0391 3.91976 35.9238C3.9113 35.8085 3.876 35.6967 3.81668 35.5974L3.33668 34.7974L4.61568 33.5184L5.41568 33.9984C5.51501 34.0578 5.62684 34.093 5.74223 34.1014C5.85762 34.1098 5.97337 34.0911 6.08025 34.0468C6.18713 34.0025 6.28216 33.9338 6.35777 33.8463C6.43337 33.7587 6.48745 33.6546 6.51568 33.5424L6.73868 32.6424H8.54768L8.76968 33.5424C8.79791 33.6546 8.85198 33.7587 8.92759 33.8463C9.00319 33.9338 9.09823 34.0025 9.2051 34.0468C9.31198 34.0911 9.42774 34.1098 9.54313 34.1014C9.65852 34.093 9.77034 34.0578 9.86968 33.9984L10.6697 33.5184L11.9487 34.7974L11.4687 35.5974C11.4094 35.6967 11.3741 35.8085 11.3656 35.9238C11.3571 36.0391 11.3757 36.1548 11.4199 36.2617C11.4641 36.3686 11.5327 36.4636 11.6202 36.5393C11.7076 36.6149 11.8116 36.6691 11.9237 36.6974L12.8297 36.9194L12.8397 38.7274Z" fill="white"/>
</svg>
