<svg width="103" height="96" viewBox="0 0 103 96" fill="none" xmlns="http://www.w3.org/2000/svg">
<path d="M79.5773 41.8681C81.6448 40.3677 83.3617 38.436 84.6092 36.2067C85.8567 33.9775 86.605 31.5038 86.8023 28.9568C86.9996 26.4099 86.6413 23.8505 85.7521 21.4556C84.8629 19.0608 83.464 16.8878 81.6523 15.0868C80.0739 13.5136 78.1961 12.2729 76.13 11.4377C74.0639 10.6026 71.8514 10.1901 69.6231 10.2247C60.3709 10.3566 52.8614 18.168 52.8765 27.6387C52.8746 30.4188 53.5341 33.1594 54.8003 35.6343C56.0666 38.1092 57.9034 40.2474 60.1591 41.8723C60.2746 41.9594 60.3677 42.0727 60.4308 42.2029C60.4939 42.333 60.5253 42.4763 60.5222 42.6209V44.8889C59.6782 45.3753 58.9913 46.0935 58.5431 46.9584C58.0948 47.8232 57.904 48.7985 57.9932 49.7685C58.0823 50.7386 58.4478 51.6627 59.0462 52.4314C59.6445 53.2 60.4508 53.781 61.3693 54.1054V56.0926C61.3708 57.444 61.9082 58.7395 62.8638 59.6951C63.8193 60.6506 65.1149 61.1881 66.4662 61.1895H73.2617C74.613 61.1879 75.9085 60.6504 76.864 59.6949C77.8195 58.7394 78.357 57.4439 78.3586 56.0926V54.1018C79.2772 53.7774 80.0834 53.1964 80.6818 52.4277C81.2802 51.6591 81.6456 50.7349 81.7348 49.7649C81.824 48.7949 81.6331 47.8196 81.1849 46.9547C80.7366 46.0898 80.0498 45.3716 79.2058 44.8852V42.6178C79.2037 42.4723 79.2363 42.3284 79.3009 42.198C79.3655 42.0677 79.4603 41.9546 79.5773 41.8681ZM56.2748 27.6327C56.2603 20.013 62.2704 13.7283 69.6728 13.623H69.8664C73.3913 13.6228 76.7724 15.0205 79.2681 17.5097C80.7267 18.9628 81.8527 20.7149 82.5687 22.6452C83.2846 24.5756 83.5735 26.6382 83.4152 28.691C83.257 30.7437 82.6555 32.7377 81.6521 34.5355C80.6488 36.3333 79.2675 37.8921 77.6034 39.1045C77.047 39.5063 76.5942 40.0349 76.2828 40.6465C75.9713 41.2581 75.81 41.9351 75.8123 42.6215V44.2033H63.9199V42.6209C63.9227 41.9352 63.762 41.2587 63.4511 40.6475C63.1403 40.0363 62.6882 39.508 62.1324 39.1063C60.3161 37.7954 58.8377 36.0713 57.8193 34.0763C56.8008 32.0813 56.2714 29.8726 56.2748 27.6327ZM73.2641 57.793H66.4687C66.0182 57.7925 65.5862 57.6133 65.2677 57.2948C64.9491 56.9762 64.77 56.5443 64.7695 56.0938V54.3983H74.9657V56.0926C74.9656 56.316 74.9216 56.5372 74.836 56.7435C74.7505 56.9499 74.6251 57.1373 74.4671 57.2952C74.3091 57.4531 74.1215 57.5783 73.9151 57.6638C73.7087 57.7492 73.4875 57.7931 73.2641 57.793ZM76.6619 50.9975H63.0709C62.6259 50.9891 62.2019 50.8064 61.8902 50.4888C61.5785 50.1711 61.4038 49.7437 61.4038 49.2987C61.4038 48.8536 61.5785 48.4262 61.8902 48.1086C62.2019 47.7909 62.6259 47.6082 63.0709 47.5998H76.6601C77.1051 47.6082 77.529 47.7909 77.8408 48.1086C78.1525 48.4262 78.3272 48.8536 78.3272 49.2987C78.3272 49.7437 78.1525 50.1711 77.8408 50.4888C77.529 50.8064 77.1051 50.9891 76.6601 50.9975H76.6619Z" fill="white"/>
<path d="M72.6216 20.9587C73.6899 21.407 74.6429 22.0912 75.4093 22.9601C76.1756 23.8289 76.7355 24.8599 77.0469 25.9757C77.1006 26.1977 77.1985 26.4066 77.3347 26.5898C77.471 26.7731 77.6428 26.927 77.84 27.0423C78.0371 27.1577 78.2554 27.2321 78.4819 27.2611C78.7084 27.2902 78.9385 27.2732 79.1583 27.2113C79.3781 27.1494 79.5832 27.0438 79.7613 26.9008C79.9394 26.7578 80.0868 26.5804 80.1947 26.3791C80.3026 26.1778 80.3689 25.9569 80.3895 25.7294C80.41 25.502 80.3845 25.2727 80.3145 25.0554C79.8614 23.443 79.0494 21.9541 77.9394 20.7C76.8293 19.446 75.4499 18.4593 73.9045 17.8139C73.6979 17.7294 73.4767 17.6865 73.2534 17.6875C73.0302 17.6885 72.8094 17.7335 72.6036 17.8199C72.3978 17.9062 72.211 18.0323 72.0539 18.1909C71.8968 18.3494 71.7724 18.5374 71.6879 18.744C71.6035 18.9506 71.5605 19.1718 71.5615 19.395C71.5626 19.6182 71.6075 19.8391 71.6939 20.0449C71.7803 20.2507 71.9063 20.4375 72.0649 20.5946C72.2234 20.7517 72.4114 20.8761 72.618 20.9605L72.6216 20.9587Z" fill="white"/>
<path d="M71.568 5.12898V1.73124C71.5722 1.50544 71.5314 1.28106 71.448 1.07121C71.3645 0.861364 71.2401 0.670259 71.0819 0.509068C70.9237 0.347878 70.735 0.219835 70.5267 0.132427C70.3185 0.0450199 70.0949 0 69.8691 0C69.6433 0 69.4197 0.0450199 69.2115 0.132427C69.0032 0.219835 68.8145 0.347878 68.6563 0.509068C68.4981 0.670259 68.3737 0.861364 68.2902 1.07121C68.2068 1.28106 68.166 1.50544 68.1702 1.73124V5.12898C68.166 5.35477 68.2068 5.57915 68.2902 5.789C68.3737 5.99885 68.4981 6.18996 68.6563 6.35115C68.8145 6.51234 69.0032 6.64038 69.2115 6.72779C69.4197 6.81519 69.6433 6.86021 69.8691 6.86021C70.0949 6.86021 70.3185 6.81519 70.5267 6.72779C70.735 6.64038 70.9237 6.51234 71.0819 6.35115C71.2401 6.18996 71.3645 5.99885 71.448 5.789C71.5314 5.57915 71.5722 5.35477 71.568 5.12898Z" fill="white"/>
<path d="M60.1942 8.88372C60.4772 8.88323 60.7555 8.81211 61.0041 8.67681C61.2526 8.5415 61.4634 8.3463 61.6174 8.1089C61.7713 7.8715 61.8636 7.59942 61.8858 7.31733C61.908 7.03524 61.8595 6.75207 61.7445 6.4935L60.36 3.38924C60.1728 2.98375 59.8335 2.66828 59.4154 2.51108C58.9974 2.35388 58.5342 2.36759 58.1262 2.54924C57.7182 2.7309 57.3981 3.06589 57.2352 3.48175C57.0723 3.8976 57.0797 4.36087 57.2558 4.77133L58.6378 7.87559C58.7717 8.17633 58.9901 8.43171 59.2664 8.61067C59.5427 8.78964 59.865 8.8845 60.1942 8.88372Z" fill="white"/>
<path d="M52.1924 14.6961C52.536 14.696 52.8714 14.5918 53.1545 14.3972C53.4376 14.2026 53.6551 13.9267 53.7782 13.606C53.9014 13.2853 53.9244 12.9348 53.8443 12.6007C53.7642 12.2666 53.5846 11.9647 53.3294 11.7347L50.8043 9.46126C50.6388 9.30982 50.445 9.19266 50.234 9.11652C50.023 9.04037 49.799 9.00676 49.5749 9.01762C49.3509 9.02847 49.1312 9.08359 48.9286 9.17977C48.7259 9.27596 48.5443 9.41132 48.3943 9.57804C48.2442 9.74476 48.1286 9.93955 48.0542 10.1512C47.9798 10.3628 47.948 10.587 47.9607 10.811C47.9734 11.0349 48.0303 11.2542 48.1282 11.456C48.226 11.6579 48.3629 11.8383 48.5308 11.987L51.056 14.258C51.3674 14.5399 51.7724 14.696 52.1924 14.6961Z" fill="white"/>
<path d="M48.8624 22.0899C49.0017 21.6616 48.9652 21.1954 48.761 20.794C48.5567 20.3925 48.2015 20.0886 47.7732 19.949L44.5419 18.8991C44.3283 18.8248 44.1021 18.7938 43.8764 18.8081C43.6508 18.8223 43.4302 18.8814 43.2277 18.982C43.0252 19.0825 42.8448 19.2225 42.697 19.3937C42.5493 19.5648 42.4372 19.7638 42.3673 19.9788C42.2975 20.1939 42.2712 20.4207 42.2901 20.646C42.3091 20.8713 42.3727 21.0906 42.4775 21.291C42.5822 21.4914 42.7259 21.6688 42.9001 21.813C43.0743 21.9571 43.2756 22.0651 43.492 22.1304L46.7233 23.1803C46.9354 23.25 47.1591 23.277 47.3817 23.2599C47.6042 23.2428 47.8212 23.1819 48.0202 23.0807C48.2191 22.9795 48.3961 22.8399 48.5409 22.6701C48.6858 22.5003 48.7957 22.3035 48.8642 22.0911L48.8624 22.0899Z" fill="white"/>
<path d="M46.036 29.7087L42.6571 30.0639C42.4317 30.0828 42.2124 30.1466 42.012 30.2513C41.8116 30.3561 41.6342 30.4998 41.49 30.6741C41.3459 30.8483 41.238 31.0496 41.1726 31.266C41.1073 31.4825 41.0858 31.7099 41.1094 31.9348C41.1331 32.1597 41.2013 32.3776 41.3103 32.5757C41.4192 32.7739 41.5666 32.9483 41.7439 33.0888C41.9211 33.2292 42.1246 33.3329 42.3424 33.3937C42.5602 33.4545 42.7879 33.4712 43.0123 33.4429L46.3918 33.0877C46.6172 33.0688 46.8365 33.0051 47.0369 32.9003C47.2373 32.7955 47.4147 32.6518 47.5589 32.4776C47.703 32.3033 47.8109 32.1021 47.8763 31.8856C47.9416 31.6691 47.9631 31.4417 47.9395 31.2168C47.9158 30.992 47.8476 30.774 47.7386 30.5759C47.6297 30.3777 47.4823 30.2033 47.305 30.0628C47.1278 29.9224 46.9244 29.8187 46.7065 29.7579C46.4887 29.6971 46.261 29.6804 46.0366 29.7087H46.036Z" fill="white"/>
<path d="M93.3437 33.0877L96.7227 33.4429C96.947 33.4712 97.1748 33.4545 97.3926 33.3937C97.6104 33.3329 97.8139 33.2292 97.9911 33.0888C98.1683 32.9483 98.3157 32.7739 98.4246 32.5757C98.5336 32.3776 98.6019 32.1597 98.6255 31.9348C98.6492 31.7099 98.6277 31.4825 98.5623 31.266C98.497 31.0496 98.3891 30.8483 98.2449 30.6741C98.1008 30.4998 97.9233 30.3561 97.7229 30.2513C97.5225 30.1466 97.3032 30.0828 97.0779 30.0639L93.6983 29.7087C93.4739 29.6804 93.2462 29.6971 93.0284 29.7579C92.8106 29.8187 92.6071 29.9224 92.4299 30.0628C92.2527 30.2033 92.1053 30.3777 91.9963 30.5759C91.8874 30.774 91.8191 30.992 91.7954 31.2168C91.7718 31.4417 91.7933 31.6691 91.8586 31.8856C91.924 32.1021 92.0319 32.3033 92.176 32.4776C92.3202 32.6518 92.4976 32.7955 92.698 32.9003C92.8984 33.0051 93.1177 33.0688 93.3431 33.0877H93.3437Z" fill="white"/>
<path d="M92.4871 23.2638C92.6655 23.2638 92.8428 23.2356 93.0124 23.1803L96.2437 22.1304C96.4602 22.0651 96.6614 21.9571 96.8356 21.813C97.0098 21.6688 97.1535 21.4914 97.2582 21.291C97.363 21.0906 97.4267 20.8713 97.4456 20.646C97.4645 20.4207 97.4383 20.1939 97.3684 19.9788C97.2985 19.7638 97.1864 19.5648 97.0387 19.3937C96.891 19.2225 96.7105 19.0825 96.508 18.982C96.3055 18.8814 96.0849 18.8223 95.8593 18.8081C95.6336 18.7938 95.4074 18.8248 95.1938 18.8991L91.9625 19.949C91.5776 20.0738 91.2499 20.3319 91.0383 20.6769C90.8268 21.0218 90.7453 21.4309 90.8084 21.8305C90.8716 22.2302 91.0753 22.5942 91.383 22.8571C91.6906 23.1199 92.0819 23.2644 92.4865 23.2644L92.4871 23.2638Z" fill="white"/>
<path d="M88.6801 14.2567L91.2047 11.9845C91.373 11.8359 91.5101 11.6554 91.6082 11.4534C91.7064 11.2515 91.7635 11.0321 91.7763 10.8079C91.7891 10.5837 91.7574 10.3593 91.6829 10.1475C91.6085 9.93563 91.4928 9.74066 91.3425 9.57382C91.1923 9.40698 91.0105 9.27157 90.8076 9.17542C90.6047 9.07926 90.3847 9.02428 90.1605 9.01363C89.9362 9.00298 89.712 9.03689 89.501 9.1134C89.2899 9.1899 89.096 9.30747 88.9306 9.45933L86.4061 11.7322C86.2403 11.8815 86.1056 12.062 86.0096 12.2634C85.9136 12.4647 85.8582 12.6831 85.8465 12.9059C85.8349 13.1287 85.8673 13.3516 85.9418 13.5619C86.0163 13.7721 86.1315 13.9657 86.2808 14.1315C86.4301 14.2972 86.6107 14.432 86.812 14.528C87.0134 14.624 87.2317 14.6794 87.4545 14.691C87.6773 14.7026 87.9002 14.6703 88.1105 14.5957C88.3208 14.5212 88.5144 14.406 88.6801 14.2567Z" fill="white"/>
<path d="M79.541 8.88371C79.8696 8.8838 80.1911 8.78861 80.4667 8.60968C80.7423 8.43076 80.9601 8.17576 81.0937 7.87559L82.4758 4.77133C82.6519 4.36087 82.6592 3.8976 82.4963 3.48175C82.3334 3.06589 82.0133 2.7309 81.6053 2.54924C81.1973 2.36759 80.7342 2.35388 80.3161 2.51108C79.8981 2.66828 79.5588 2.98375 79.3716 3.38924L77.9913 6.4935C77.8763 6.75206 77.8278 7.03524 77.85 7.31733C77.8722 7.59942 77.9645 7.8715 78.1184 8.1089C78.2724 8.3463 78.4832 8.5415 78.7317 8.67681C78.9803 8.81211 79.2586 8.88323 79.5416 8.88371H79.541Z" fill="white"/>
<path d="M97.199 81.5803H75.1122V79.8811C75.1122 77.3305 71.7925 75.4722 70.7753 74.9639C70.688 74.9203 70.5971 74.8843 70.5036 74.8562L53.8756 69.8676C52.8233 68.9381 49.0618 65.6741 44.4636 62.3641C37.1217 57.0784 31.4287 54.399 27.5426 54.399H13.9529V52.6998C13.953 52.4766 13.9091 52.2556 13.8237 52.0494C13.7384 51.8431 13.6132 51.6557 13.4554 51.4979C13.2976 51.34 13.1103 51.2148 12.9041 51.1294C12.6979 51.044 12.4769 51 12.2537 51H2.0605C1.60985 51 1.17766 51.179 0.859005 51.4977C0.540348 51.8163 0.361328 52.2485 0.361328 52.6992V90.0749C0.361328 90.5256 0.540348 90.9578 0.859005 91.2764C1.17766 91.5951 1.60985 91.7741 2.0605 91.7741H12.2537C12.7044 91.7741 13.1366 91.5951 13.4552 91.2764C13.7739 90.9578 13.9529 90.5256 13.9529 90.0749V88.3757H18.9705C20.0307 88.5167 28.7002 90.2286 36.364 91.7414C51.6929 94.767 53.8586 95.1712 54.3361 95.1712H97.199C98.5503 95.1698 99.8459 94.6323 100.801 93.6768C101.757 92.7212 102.294 91.4256 102.296 90.0743V86.6766C102.294 85.3253 101.757 84.0298 100.801 83.0743C99.8458 82.1188 98.5503 81.5813 97.199 81.5797V81.5803ZM10.5545 88.3763H3.75907V54.3977H10.5545V88.3763ZM98.8982 90.0755C98.8977 90.526 98.7185 90.9579 98.4 91.2765C98.0814 91.595 97.6495 91.7742 97.199 91.7747H54.4171C53.357 91.6337 44.6874 89.9218 37.0248 88.409C21.6948 85.3834 19.5291 84.9792 19.0528 84.9792H13.9529V57.7955H27.5438C33.972 57.7955 47.2985 68.5182 51.8914 72.6499C52.078 72.8172 52.2993 72.9412 52.5395 73.013L69.3799 78.0651C70.4376 78.6188 71.5529 79.5077 71.7144 79.9319V83.2782C71.7141 83.7047 71.5537 84.1154 71.2649 84.4292C70.9761 84.743 70.58 84.9369 70.1551 84.9725L53.6311 81.6674L41.9783 75.0111C41.7844 74.8952 41.5693 74.8191 41.3456 74.7873C41.1219 74.7555 40.8942 74.7687 40.6756 74.826C40.4571 74.8833 40.2521 74.9836 40.0728 75.1211C39.8935 75.2585 39.7434 75.4304 39.6313 75.6265C39.5192 75.8227 39.4474 76.0392 39.42 76.2635C39.3926 76.4877 39.4101 76.7152 39.4717 76.9326C39.5333 77.15 39.6376 77.3529 39.7785 77.5295C39.9194 77.7061 40.0942 77.8528 40.2925 77.961L52.1849 84.7565C52.3433 84.8472 52.5154 84.9118 52.6944 84.9478L69.6837 88.3455C69.7935 88.3673 69.9051 88.3782 70.0171 88.3782C71.0708 88.3769 72.0984 88.0497 72.9588 87.4414C73.8193 86.8331 74.4704 85.9734 74.8229 84.9804H97.2002C97.6507 84.9809 98.0826 85.1601 98.4012 85.4786C98.7197 85.7972 98.8989 86.2291 98.8994 86.6796L98.8982 90.0755Z" fill="white"/>
</svg>
