<svg width="102" height="96" viewBox="0 0 102 96" fill="none" xmlns="http://www.w3.org/2000/svg">
<path d="M100.3 32.0022H86.702C86.3863 32.0021 86.0768 32.0848 85.8082 32.241C85.5397 32.3972 85.3226 32.6207 85.1814 32.8865L82.2509 38.4025H81.6011V1.59989C81.6011 1.17557 81.422 0.768635 81.1032 0.468597C80.7845 0.16856 80.3521 0 79.9013 0H22.0972C21.6463 0 21.214 0.16856 20.8952 0.468597C20.5765 0.768635 20.3974 1.17557 20.3974 1.59989V7.99945H15.298C14.8472 7.99945 14.4149 8.16801 14.0961 8.46805C13.7773 8.76809 13.5982 9.17503 13.5982 9.59935V12.7991H8.49891C8.0481 12.7991 7.61575 12.9677 7.29698 13.2677C6.97821 13.5678 6.79912 13.9747 6.79912 14.399V38.3974H1.69978C1.24897 38.3974 0.816625 38.5659 0.497855 38.866C0.179084 39.166 0 39.573 0 39.9973V88.0005C0.00286221 90.1213 0.8992 92.1544 2.49243 93.654C4.08567 95.1536 6.24573 95.9973 8.49891 96H100.3C100.751 96 101.183 95.8314 101.502 95.5314C101.821 95.2314 102 94.8244 102 94.4001V33.6021C102 33.392 101.956 33.1839 101.871 32.9898C101.785 32.7957 101.66 32.6193 101.502 32.4708C101.344 32.3222 101.157 32.2044 100.951 32.124C100.744 32.0436 100.523 32.0022 100.3 32.0022ZM13.5982 88.0056C13.5968 88.9978 13.2693 89.9653 12.6607 90.7754C12.052 91.5855 11.1921 92.1985 10.1987 92.5304V72.0045C10.1987 71.7944 10.1547 71.5864 10.0693 71.3923C9.98388 71.1982 9.85867 71.0218 9.70083 70.8733C9.54299 70.7247 9.35561 70.6068 9.14938 70.5264C8.94316 70.446 8.72212 70.4047 8.49891 70.4047C8.27569 70.4047 8.05465 70.446 7.84843 70.5264C7.6422 70.6068 7.45482 70.7247 7.29698 70.8733C7.13914 71.0218 7.01393 71.1982 6.92851 71.3923C6.84309 71.5864 6.79912 71.7944 6.79912 72.0045V92.5304C5.80574 92.1985 4.94576 91.5855 4.33713 90.7754C3.72849 89.9653 3.401 88.9978 3.39956 88.0056V41.603H13.5982V88.0056ZM13.5982 38.4025H10.1987V15.9989H13.5982V38.4025ZM23.7969 3.19978H78.1969V67.2041H23.7969V3.19978ZM16.9978 11.1992H20.3974V38.3974H16.9978V11.1992ZM98.6004 92.806H15.298C16.4059 91.4233 17.0043 89.7382 17.0024 88.0064V41.603H20.402V68.8011C20.402 69.0112 20.446 69.2193 20.5314 69.4134C20.6168 69.6075 20.742 69.7839 20.8999 69.9324C21.0577 70.081 21.2451 70.1988 21.4513 70.2792C21.6575 70.3596 21.8786 70.401 22.1018 70.401H79.9021C80.1253 70.401 80.3463 70.3596 80.5526 70.2792C80.7588 70.1988 80.9462 70.081 81.104 69.9324C81.2618 69.7839 81.387 69.6075 81.4725 69.4134C81.5579 69.2193 81.6019 69.0112 81.6019 68.8011V41.603H83.3016C83.6173 41.603 83.9268 41.5203 84.1954 41.3641C84.4639 41.2079 84.681 40.9844 84.8222 40.7187L87.7527 35.2027H98.602L98.6004 92.806Z" fill="white"/>
<path d="M50.9973 36.8019C54.0228 36.8019 56.9803 35.9576 59.496 34.3755C62.0116 32.7935 63.9724 30.5449 65.1304 27.914C66.2884 25.2832 66.5916 22.3882 66.0016 19.5952C65.4116 16.8021 63.955 14.2365 61.816 12.2226C59.6769 10.2087 56.9514 8.83703 53.9841 8.28103C51.0168 7.72503 47.941 8.00966 45.1456 9.09893C42.3502 10.1882 39.9607 12.0332 38.2793 14.4006C36.5978 16.768 35.7 19.5516 35.6992 22.3993C35.6987 24.2905 36.094 26.1633 36.8626 27.9107C37.6312 29.6581 38.7579 31.2458 40.1785 32.5833C41.5991 33.9207 43.2858 34.9817 45.1421 35.7055C46.9983 36.4294 48.988 36.8019 50.9973 36.8019ZM50.9973 33.6022C48.5716 33.6041 46.204 32.9041 44.2151 31.5972C44.2836 30.761 44.5733 29.9542 45.0579 29.2503C45.5426 28.5465 46.2066 27.968 46.9896 27.5677C48.1522 28.3696 49.556 28.8019 50.9973 28.8019C52.4385 28.8019 53.8423 28.3696 55.0049 27.5677C55.7876 27.9683 56.4515 28.5469 56.936 29.2507C57.4206 29.9544 57.7105 30.7611 57.7794 31.5972C55.79 32.9029 53.4225 33.6015 50.9973 33.5985V33.6022ZM47.5977 22.4029C47.5977 21.7701 47.7971 21.1514 48.1706 20.6252C48.5442 20.099 49.0751 19.6889 49.6963 19.4467C50.3175 19.2045 51.001 19.1412 51.6605 19.2646C52.3199 19.3881 52.9257 19.6928 53.4011 20.1403C53.8765 20.5878 54.2003 21.158 54.3315 21.7787C54.4627 22.3994 54.3953 23.0428 54.138 23.6274C53.8807 24.2121 53.445 24.7119 52.8859 25.0634C52.3269 25.415 51.6696 25.6027 50.9973 25.6027C50.5505 25.6027 50.1081 25.5198 49.6954 25.3588C49.2827 25.1978 48.9078 24.9617 48.592 24.6642C48.2763 24.3667 48.026 24.0135 47.8554 23.6249C47.6847 23.2363 47.5972 22.8198 47.5977 22.3993V22.4029ZM50.9973 11.2037C53.1944 11.2021 55.349 11.7735 57.2221 12.8544C59.0952 13.9353 60.6135 15.4836 61.6085 17.3274C62.6036 19.1711 63.0365 21.2383 62.8592 23.2996C62.6819 25.3608 61.9013 27.3356 60.6041 29.0047C59.9359 27.3824 58.7373 26.0018 57.1814 25.0624C57.6548 24.0875 57.8605 23.0162 57.7796 21.947C57.6986 20.8778 57.3336 19.8448 56.7181 18.943C56.1025 18.0411 55.2561 17.2992 54.2566 16.7854C53.2571 16.2716 52.1365 16.0023 50.9976 16.0023C49.8588 16.0023 48.7382 16.2716 47.7386 16.7854C46.7391 17.2992 45.8928 18.0411 45.2772 18.943C44.6617 19.8448 44.2967 20.8778 44.2157 21.947C44.1348 23.0162 44.3404 24.0875 44.8139 25.0624C43.2574 26.0013 42.0587 27.382 41.3912 29.0047C40.0929 27.3356 39.3114 25.3606 39.1335 23.2988C38.9556 21.2371 39.3882 19.1692 40.3833 17.3249C41.3784 15.4805 42.897 13.9318 44.7707 12.8506C46.6443 11.7694 48.7995 11.1981 50.9973 11.2001V11.2037Z" fill="white"/>
<path d="M44.1998 40.0039C43.749 40.0039 43.3166 40.1725 42.9979 40.4725C42.6791 40.7725 42.5 41.1795 42.5 41.6038C42.5 42.0281 42.6791 42.4351 42.9979 42.7351C43.3166 43.0351 43.749 43.2037 44.1998 43.2037H57.798C58.2488 43.2037 58.6812 43.0351 59 42.7351C59.3187 42.4351 59.4978 42.0281 59.4978 41.6038C59.4978 41.1795 59.3187 40.7725 59 40.4725C58.6812 40.1725 58.2488 40.0039 57.798 40.0039H44.1998Z" fill="white"/>
<path d="M62.8985 48.0022C62.8985 47.5779 62.7194 47.171 62.4006 46.8709C62.0819 46.5709 61.6495 46.4023 61.1987 46.4023H40.8013C40.3505 46.4023 39.9182 46.5709 39.5994 46.8709C39.2806 47.171 39.1016 47.5779 39.1016 48.0022C39.1016 48.4265 39.2806 48.8335 39.5994 49.1335C39.9182 49.4336 40.3505 49.6021 40.8013 49.6021H61.1987C61.6495 49.6021 62.0819 49.4336 62.4006 49.1335C62.7194 48.8335 62.8985 48.4265 62.8985 48.0022Z" fill="white"/>
<path d="M69.6992 54.4023H59.5006C59.0498 54.4023 58.6174 54.5709 58.2986 54.871C57.9799 55.171 57.8008 55.5779 57.8008 56.0022C57.8008 56.4266 57.9799 56.8335 58.2986 57.1335C58.6174 57.4336 59.0498 57.6021 59.5006 57.6021H69.6992C70.1501 57.6021 70.5824 57.4336 70.9012 57.1335C71.2199 56.8335 71.399 56.4266 71.399 56.0022C71.399 55.5779 71.2199 55.171 70.9012 54.871C70.5824 54.5709 70.1501 54.4023 69.6992 54.4023Z" fill="white"/>
<path d="M52.699 60.8047H49.2994C48.8486 60.8047 48.4162 60.9733 48.0975 61.2733C47.7787 61.5733 47.5996 61.9803 47.5996 62.4046C47.5996 62.8289 47.7787 63.2358 48.0975 63.5359C48.4162 63.8359 48.8486 64.0045 49.2994 64.0045H52.699C53.1498 64.0045 53.5821 63.8359 53.9009 63.5359C54.2197 63.2358 54.3987 62.8289 54.3987 62.4046C54.3987 61.9803 54.2197 61.5733 53.9009 61.2733C53.5821 60.9733 53.1498 60.8047 52.699 60.8047Z" fill="white"/>
<path d="M8.49861 60.8047C8.0478 60.8047 7.61545 60.9733 7.29668 61.2733C6.97791 61.5733 6.79883 61.9803 6.79883 62.4046V65.6044C6.79883 66.0287 6.97791 66.4356 7.29668 66.7357C7.61545 67.0357 8.0478 67.2042 8.49861 67.2042C8.94942 67.2042 9.38176 67.0357 9.70054 66.7357C10.0193 66.4356 10.1984 66.0287 10.1984 65.6044V62.4046C10.1984 61.9803 10.0193 61.5733 9.70054 61.2733C9.38176 60.9733 8.94942 60.8047 8.49861 60.8047Z" fill="white"/>
<path d="M6.79883 49.6038V56.0034C6.79883 56.4277 6.97791 56.8346 7.29668 57.1347C7.61545 57.4347 8.0478 57.6033 8.49861 57.6033C8.94942 57.6033 9.38176 57.4347 9.70054 57.1347C10.0193 56.8346 10.1984 56.4277 10.1984 56.0034V49.6038C10.1984 49.1795 10.0193 48.7726 9.70054 48.4725C9.38176 48.1725 8.94942 48.0039 8.49861 48.0039C8.0478 48.0039 7.61545 48.1725 7.29668 48.4725C6.97791 48.7726 6.79883 49.1795 6.79883 49.6038Z" fill="white"/>
<path d="M74.8008 78.4046V88.0039C74.8008 88.4282 74.9799 88.8352 75.2986 89.1352C75.6174 89.4352 76.0498 89.6038 76.5006 89.6038H93.4984C93.9492 89.6038 94.3815 89.4352 94.7003 89.1352C95.0191 88.8352 95.1982 88.4282 95.1982 88.0039V78.4046C95.1982 77.9803 95.0191 77.5733 94.7003 77.2733C94.3815 76.9733 93.9492 76.8047 93.4984 76.8047H76.5006C76.0498 76.8047 75.6174 76.9733 75.2986 77.2733C74.9799 77.5733 74.8008 77.9803 74.8008 78.4046ZM78.2003 80.0045H91.7986V86.404H78.2003V80.0045Z" fill="white"/>
<path d="M23.7994 83.2037H32.2983C32.5215 83.2037 32.7425 83.1623 32.9488 83.0819C33.155 83.0015 33.3424 82.8837 33.5002 82.7351C33.6581 82.5865 33.7833 82.4102 33.8687 82.216C33.9541 82.0219 33.9981 81.8139 33.9981 81.6038C33.9981 81.3937 33.9541 81.1857 33.8687 80.9915C33.7833 80.7974 33.6581 80.6211 33.5002 80.4725C33.3424 80.3239 33.155 80.2061 32.9488 80.1257C32.7425 80.0453 32.5215 80.0039 32.2983 80.0039H23.7994C23.3486 80.0039 22.9162 80.1725 22.5975 80.4725C22.2787 80.7726 22.0996 81.1795 22.0996 81.6038C22.0996 82.0281 22.2787 82.4351 22.5975 82.7351C22.9162 83.0351 23.3486 83.2037 23.7994 83.2037Z" fill="white"/>
<path d="M35.6979 86.4062H23.7994C23.3486 86.4062 22.9162 86.5748 22.5975 86.8749C22.2787 87.1749 22.0996 87.5818 22.0996 88.0061C22.0996 88.4305 22.2787 88.8374 22.5975 89.1374C22.9162 89.4375 23.3486 89.606 23.7994 89.606H35.6979C36.1487 89.606 36.581 89.4375 36.8998 89.1374C37.2186 88.8374 37.3976 88.4305 37.3976 88.0061C37.3976 87.5818 37.2186 87.1749 36.8998 86.8749C36.581 86.5748 36.1487 86.4063 35.6979 86.4062Z" fill="white"/>
</svg>
