<svg width="207" height="208" viewBox="0 0 207 208" fill="none" xmlns="http://www.w3.org/2000/svg">
<path d="M162.099 88.7934C160.711 83.6142 158.647 78.71 156.018 74.1734C153.353 69.5759 150.115 65.3482 146.381 61.6143C142.647 57.8804 138.42 54.6425 133.82 51.9773C129.283 49.346 124.379 47.2851 119.202 45.8962C114.19 44.5501 108.93 43.8241 103.5 43.8241V54.5298C107.971 54.5298 112.305 55.1295 116.431 56.2366C120.695 57.3798 124.733 59.0799 128.469 61.2445C132.257 63.4384 135.739 66.1058 138.814 69.1813C141.89 72.2568 144.555 75.736 146.749 79.524C148.916 83.2602 150.614 87.2985 151.759 91.5645C152.866 95.6908 153.464 100.022 153.464 104.493C153.464 108.967 152.866 113.298 151.759 117.427C150.614 121.691 148.916 125.729 146.749 129.465C144.555 133.251 141.89 136.732 138.814 139.808C135.739 142.883 132.257 145.548 128.469 147.745L133.82 157.012C138.42 154.347 142.647 151.111 146.381 147.375C150.115 143.641 153.353 139.413 156.018 134.816C158.647 130.279 160.711 125.375 162.099 120.196C163.443 115.186 164.172 109.925 164.172 104.493C164.172 99.0662 163.443 93.8035 162.099 88.7934Z" fill="#496A9B"/>
<path d="M203.478 77.7043C201.115 68.861 197.602 60.4935 193.122 52.7506C188.578 44.8972 183.057 37.6819 176.684 31.3077C170.312 24.9357 163.095 19.4137 155.242 14.8726C147.501 10.3923 139.131 6.87939 130.29 4.51639C121.742 2.23004 112.768 0.994431 103.499 0.994431V11.7024H103.501C111.803 11.7024 119.851 12.8162 127.515 14.8703C135.436 16.9966 142.933 20.151 149.873 24.1736C156.906 28.2479 163.37 33.1994 169.084 38.9108C174.795 44.6221 179.744 51.0889 183.821 58.1193C187.843 65.0595 190.998 72.5589 193.122 80.4776C195.178 88.1439 196.292 96.1889 196.292 104.493C196.292 112.798 195.178 120.843 193.122 128.509C190.998 136.428 187.843 143.927 183.821 150.867C179.744 157.9 174.795 164.364 169.084 170.076C163.37 175.787 156.906 180.739 149.873 184.813C147.855 185.983 145.803 187.102 143.693 188.121C138.547 190.603 133.131 192.61 127.515 194.116C119.851 196.173 111.803 197.284 103.501 197.284H103.499C95.1968 197.284 87.1495 196.173 79.4855 194.116C71.5644 191.992 64.065 188.836 57.1271 184.813C50.0944 180.739 43.6277 175.787 37.9164 170.076C32.205 164.364 27.2558 157.898 23.1791 150.867C19.1566 143.927 16.0022 136.428 13.8759 128.509C11.8218 120.843 10.7079 112.798 10.7079 104.493H0C0 113.76 1.23787 122.737 3.52196 131.282C5.88497 140.126 9.39792 148.495 13.8782 156.236C18.4215 164.089 23.9412 171.305 30.3155 177.679C36.6875 184.051 43.9051 189.571 51.7562 194.116C59.4991 198.594 67.8666 202.107 76.7098 204.472C85.2577 206.757 94.2317 207.992 103.499 207.992C112.768 207.992 121.742 206.757 130.29 204.472C139.131 202.107 147.501 198.594 155.242 194.116C163.095 189.571 170.312 184.051 176.684 177.679C183.057 171.305 188.578 164.089 193.122 156.236C197.602 148.495 201.115 140.126 203.478 131.282C205.762 122.737 207 113.76 207 104.493C207 95.2262 205.762 86.2521 203.478 77.7043Z" fill="#496A9B"/>
<path d="M182.78 83.2506C180.9 76.245 178.108 69.6115 174.55 63.4717C170.945 57.2508 166.566 51.5326 161.513 46.4774C156.46 41.4267 150.742 37.0457 144.521 33.4403C138.381 29.8845 131.748 27.0931 124.742 25.2126C117.967 23.3952 110.855 22.4122 103.516 22.4099V33.1179C109.897 33.1179 116.079 33.9747 121.971 35.553C128.064 37.1877 133.831 39.6139 139.171 42.7097C144.58 45.8438 149.554 49.6522 153.946 54.0467C158.341 58.439 162.149 63.4131 165.283 68.8223C168.377 74.1616 170.803 79.9271 172.44 86.0217C174.021 91.918 174.877 98.1051 174.877 104.493C174.877 110.881 174.021 117.072 172.44 122.966C170.803 129.059 168.377 134.829 165.283 140.166C162.149 145.575 158.341 150.549 153.946 154.941C149.554 159.336 144.58 163.144 139.171 166.281C133.831 169.374 128.064 171.8 121.971 173.435C116.075 175.016 109.886 175.872 103.498 175.872C97.11 175.872 90.9206 175.016 85.0266 173.435C78.9319 171.8 73.1642 169.374 67.8272 166.278L62.4766 175.548C68.6141 179.106 75.2476 181.897 82.2555 183.775C89.0334 185.595 96.1517 186.578 103.498 186.578C110.844 186.578 117.962 185.595 124.742 183.775C131.748 181.897 138.381 179.106 144.521 175.548C150.742 171.94 156.46 167.564 161.513 162.508C166.566 157.458 170.945 151.737 174.55 145.516C178.108 139.379 180.9 132.745 182.78 125.737C184.598 118.957 185.583 111.841 185.583 104.493C185.583 97.1491 184.598 90.0307 182.78 83.2506Z" fill="#496A9B"/>
<path d="M141.38 94.3434C140.483 90.9951 139.162 87.8226 137.461 84.8869C135.737 81.9128 133.664 79.1643 131.247 76.7471C128.832 74.3323 126.082 72.2601 123.108 70.533C120.172 68.8329 116.999 67.5138 113.651 66.6142C110.406 65.7438 107.015 65.2365 103.502 65.2365H103.5V75.9422H103.502C106.057 75.9422 108.524 76.312 110.882 76.9455C113.32 77.5994 115.626 78.56 117.759 79.7956C119.924 81.0492 121.924 82.5577 123.68 84.3142C125.437 86.0729 126.945 88.0706 128.199 90.2352C129.437 92.3705 130.395 94.6749 131.049 97.1123C131.682 99.4708 132.052 101.938 132.052 104.492H142.758C142.758 100.979 142.251 97.5881 141.38 94.3434Z" fill="#496A9B"/>
<path d="M87.7997 45.897C82.6205 47.2882 77.7163 49.3513 73.1774 51.9781C68.5822 54.6455 64.3522 57.8833 60.6183 61.6173C56.8844 65.3512 53.6488 69.5789 50.9814 74.1764C48.3523 78.713 46.2892 83.6172 44.9003 88.7964C43.5564 93.8065 42.8281 99.0691 42.8281 104.496C42.8281 109.928 43.5564 115.189 44.9003 120.199C46.2892 125.376 48.3523 130.28 50.9814 134.819C53.6488 139.416 56.8844 143.644 60.6183 147.378C64.3522 151.112 68.5822 154.35 73.1774 157.015C77.7163 159.644 82.6205 161.707 87.7997 163.098C92.8098 164.442 98.0702 165.168 103.5 165.168C108.929 165.168 114.19 164.442 119.2 163.098C124.381 161.707 129.281 159.644 133.822 157.015L128.469 147.748C124.733 149.912 120.695 151.612 116.431 152.755C112.302 153.863 107.973 154.46 103.5 154.46C99.0285 154.46 94.6971 153.863 90.5686 152.755C86.3048 151.612 82.2665 149.912 78.528 147.748C74.7423 145.551 71.2631 142.886 68.1854 139.811C65.1121 136.735 62.4447 133.254 60.2485 129.468C58.084 125.732 56.3861 121.694 55.2407 117.428C54.1358 113.301 53.5361 108.97 53.5361 104.496C53.5361 100.027 54.1358 95.6937 55.2407 91.5675C56.3861 87.3014 58.084 83.2631 60.2485 79.527C62.4447 75.7412 65.1121 72.2598 68.1854 69.1843C71.2631 66.1087 74.7423 63.4436 78.528 61.2475C82.2665 59.0806 86.3048 57.3828 90.5686 56.2396C94.6971 55.1325 99.0285 54.5327 103.5 54.5327V43.8248C98.0702 43.8248 92.8098 44.5531 87.7997 45.897Z" fill="url(#paint0_linear)"/>
<path d="M76.7098 4.51919C67.8666 6.88445 59.4969 10.3974 51.7562 14.8754C43.9028 19.4187 36.6875 24.9407 30.3133 31.3127C23.9412 37.687 18.4193 44.9 13.8759 52.7534C9.39566 60.4963 5.88497 68.8638 3.52197 77.7093C1.23562 86.2549 0 95.229 0 104.496H10.7057C10.7057 96.194 11.8196 88.1467 13.8737 80.4827C15.9999 72.5617 19.1543 65.0645 23.1791 58.1243C27.2535 51.0916 32.2028 44.6272 37.9164 38.9136C43.6277 33.2022 50.0944 28.253 57.1248 24.1763C59.1451 23.0061 61.1947 21.8878 63.3074 20.8686C68.4506 18.3861 73.8666 16.3816 79.4832 14.8754C87.1495 12.819 95.1945 11.7052 103.499 11.7052V0.999466C94.2317 0.999466 85.2577 2.23509 76.7098 4.51919Z" fill="url(#paint1_linear)"/>
<path d="M93.3514 66.6179C90.0008 67.5175 86.8283 68.8366 83.8926 70.5389C80.9185 72.2616 78.17 74.336 75.7528 76.7509C73.338 79.168 71.2658 81.9165 69.5387 84.8906C67.8386 87.8263 66.5195 90.9988 65.6221 94.3471C64.7495 97.5918 64.2422 100.983 64.2422 104.496C64.2422 108.011 64.7495 111.402 65.6221 114.645C66.5195 117.995 67.8386 121.168 69.5387 124.104C71.2658 127.08 73.338 129.826 75.7528 132.243C78.17 134.66 80.9185 136.733 83.8926 138.455C86.8283 140.158 90.0008 141.477 93.3514 142.376C96.5938 143.247 99.985 143.754 103.5 143.754C107.015 143.754 110.407 143.247 113.649 142.376C117 141.477 120.17 140.158 123.108 138.457C126.082 136.733 128.83 134.66 131.247 132.243C133.665 129.826 135.734 127.08 137.459 124.104C139.162 121.168 140.483 117.995 141.378 114.647C142.249 111.402 142.758 108.011 142.758 104.496H132.05C132.05 107.053 131.683 109.52 131.049 111.878C130.395 114.316 129.435 116.622 128.199 118.757C126.945 120.92 125.437 122.92 123.678 124.676C121.922 126.433 119.924 127.939 117.759 129.193C115.624 130.43 113.317 131.391 110.882 132.047C108.522 132.678 106.057 133.048 103.5 133.048C100.943 133.048 98.4765 132.678 96.1203 132.045C93.6828 131.391 91.3739 130.43 89.2409 129.193C87.0763 127.939 85.0786 126.433 83.3199 124.676C81.5634 122.92 80.0572 120.92 78.8036 118.757C77.5657 116.622 76.6051 114.316 75.9513 111.878C75.3199 109.52 74.9479 107.053 74.9479 104.496C74.9479 101.941 75.3199 99.4745 75.9513 97.116C76.6051 94.6786 77.5657 92.372 78.8036 90.2367C80.0572 88.0743 81.5634 86.0744 83.3199 84.3179C85.0786 82.5592 87.0763 81.0552 89.2409 79.7993C91.3739 78.5614 93.6828 77.6031 96.1203 76.9493C98.4765 76.3157 100.943 75.9459 103.5 75.9459V65.2402C99.985 65.2402 96.5938 65.7475 93.3514 66.6179Z" fill="url(#paint2_linear)"/>
<path d="M82.257 25.214C75.2492 27.0945 68.6156 29.8837 62.4758 33.444C56.2572 37.0493 50.5368 41.4258 45.4838 46.4788C40.4309 51.5317 36.0521 57.2522 32.4467 63.4731C28.8887 69.6106 26.0972 76.2442 24.2168 83.252C22.3994 90.0299 21.4141 97.1482 21.4141 104.494C21.4141 111.84 22.3994 118.961 24.2168 125.741C26.0972 132.744 28.8887 139.378 32.4467 145.518C36.0521 151.736 40.4309 157.457 45.4838 162.51C50.5368 167.565 56.2572 171.944 62.4758 175.547L67.8287 166.28C62.4172 163.146 57.4432 159.337 53.0509 154.943C48.6563 150.55 44.848 145.576 41.7138 140.167C38.6203 134.83 36.1941 129.06 34.5572 122.968C32.9766 117.074 32.1198 110.884 32.1198 104.494C32.1198 98.1065 32.9766 91.9172 34.5572 86.0232C36.1941 79.9307 38.6203 74.1607 41.7138 68.8237C44.848 63.4144 48.6563 58.4404 53.0509 54.0459C57.4432 49.6536 62.4172 45.8452 67.8287 42.7111C73.1658 39.6153 78.9335 37.1892 85.0259 35.5544C90.9221 33.9738 97.1138 33.1192 103.499 33.1192V22.4113C96.1532 22.4113 89.0371 23.3966 82.257 25.214Z" fill="url(#paint3_linear)"/>
<defs>
<linearGradient id="paint0_linear" x1="42.8281" y1="104.497" x2="133.821" y2="104.497" gradientUnits="userSpaceOnUse">
<stop stop-color="#069EFC"/>
<stop offset="1" stop-color="#14F4C9"/>
</linearGradient>
<linearGradient id="paint1_linear" x1="2.25478e-06" y1="52.7476" x2="103.499" y2="52.7476" gradientUnits="userSpaceOnUse">
<stop stop-color="#069EFC"/>
<stop offset="1" stop-color="#14F4C9"/>
</linearGradient>
<linearGradient id="paint2_linear" x1="64.2422" y1="104.497" x2="142.758" y2="104.497" gradientUnits="userSpaceOnUse">
<stop stop-color="#069EFC"/>
<stop offset="1" stop-color="#14F4C9"/>
</linearGradient>
<linearGradient id="paint3_linear" x1="21.4141" y1="98.9793" x2="124.743" y2="98.9793" gradientUnits="userSpaceOnUse">
<stop stop-color="#069EFC"/>
<stop offset="1" stop-color="#14F4C9"/>
</linearGradient>
</defs>
</svg>
