<svg width="104" height="142" viewBox="0 0 104 142" fill="none" xmlns="http://www.w3.org/2000/svg">
<path d="M73.5925 121.477H28.4684C26.2176 121.477 24.3984 123.296 24.3984 125.547C24.3984 127.782 26.2176 129.602 28.4684 129.602H73.5925C75.8433 129.602 77.6624 127.782 77.6624 125.547C77.6624 123.296 75.8433 121.477 73.5925 121.477Z" fill="white"/>
<path d="M66.781 133.165H33.8668C31.616 133.165 29.7969 134.984 29.7969 137.235C29.7969 139.485 31.616 141.289 33.8668 141.289H66.781C69.0319 141.289 70.851 139.485 70.851 137.235C70.851 134.984 69.0319 133.165 66.781 133.165Z" fill="white"/>
<path d="M73.4822 45.9344L48.9391 70.4775C46.2721 73.1599 41.94 73.1599 39.2422 70.4929L30.1156 61.4126C26.169 57.4813 28.9593 50.7443 34.5401 50.7598C36.1897 50.7598 37.7622 51.4227 38.9184 52.5943L43.605 57.2655C44.3296 57.9901 45.5012 58.0209 46.2567 57.3272L66.6527 38.7811C67.5623 37.9486 68.7493 37.4862 69.9827 37.4862C74.3918 37.4862 76.5963 42.8203 73.4822 45.9344ZM85.985 13.1281C75.0701 3.35403 60.409 -1.30176 45.7171 0.316978C22.4998 2.87611 3.46047 21.5301 0.454251 44.6702C-1.75031 61.6284 4.13879 77.939 16.6107 89.4397C23.1319 95.483 25.799 100.725 25.799 107.508V109.219C25.799 111.47 27.6181 113.289 29.8689 113.289H73.2972C75.548 113.289 77.3517 111.47 77.3517 109.219V107.462C77.3517 100.709 80.0188 95.483 86.54 89.4706C97.1003 79.7273 103.159 65.9142 103.159 51.5614C103.159 36.9157 96.8998 22.9176 85.985 13.1281Z" fill="white"/>
</svg>
