<svg width="219" height="133" viewBox="0 0 219 133" fill="none" xmlns="http://www.w3.org/2000/svg">
<path d="M11.9766 132.992H57.5071V36.0041L11.9766 54.8836V132.992Z" fill="white"/>
<path d="M129.609 68.7557V133H175.161V58.8704L145.816 77.522L129.609 68.7557Z" fill="white"/>
<path d="M71.3633 132.992H116.894V61.8676L71.3633 37.2889V132.992Z" fill="white"/>
<path d="M176.216 6.30187L172.755 6.03246L176.216 11.8144L182.164 21.8034L176.216 25.5752L146.871 44.206L130.665 35.4398L117.94 28.5801L72.4095 3.98079L65.0525 0.00179291L58.5452 2.6959L13.0147 21.5754L0 26.9844V46.2577L13.0147 40.8694L58.5452 21.9899L65.0525 19.2751L72.4095 23.2541L117.94 47.8741L130.665 54.7545L146.871 63.5L176.216 44.8692L190.515 35.7713L199.986 51.6459L218.928 9.41047L176.216 6.30187Z" fill="white"/>
</svg>
