{
    "asset" : {
        "generator" : "Khronos glTF Blender I/O v1.2.75",
        "version" : "2.0"
    },
    "scene" : 0,
    "scenes" : [
        {
            "extras" : {
                "glTF2ExportSettings" : {
                    "export_apply" : 1,
                    "export_extras" : 1,
                    "export_format" : "GLTF_EMBEDDED",
                    "export_image_format" : "JPEG"
                }
            },
            "name" : "Scene",
            "nodes" : [
                0
            ]
        }
    ],
    "nodes" : [
        {
            "mesh" : 0,
            "name" : "floor.001",
            "translation" : [
                2.7486379146575928,
                0.2116837501525879,
                1.6803359985351562
            ]
        }
    ],
    "materials" : [
        {
            "doubleSided" : true,
            "emissiveFactor" : [
                0,
                0,
                0
            ],
            "name" : "Material.054",
            "pbrMetallicRoughness" : {
                "baseColorTexture" : {
                    "index" : 0,
                    "texCoord" : 0
                },
                "metallicFactor" : 0,
                "metallicRoughnessTexture" : {
                    "index" : 1,
                    "texCoord" : 0
                }
            }
        }
    ],
    "meshes" : [
        {
            "name" : "Cube.027",
            "primitives" : [
                {
                    "attributes" : {
                        "POSITION" : 0,
                        "NORMAL" : 1,
                        "TEXCOORD_0" : 2
                    },
                    "indices" : 3,
                    "material" : 0
                }
            ]
        }
    ],
    "textures" : [
        {
            "source" : 0
        },
        {
            "source" : 1
        }
    ],
    "images" : [
        {
            "bufferView" : 4,
            "mimeType" : "image/jpeg",
            "name" : "floor_Diffuse"
        },
        {
            "bufferView" : 5,
            "mimeType" : "image/jpeg",
            "name" : "floor_Rougness"
        }
    ],
    "accessors" : [
        {
            "bufferView" : 0,
            "componentType" : 5126,
            "count" : 2884,
            "max" : [
                1.4524332284927368,
                0,
                2.960571050643921
            ],
            "min" : [
                -2.5033116340637207,
                -0.0061876727268099785,
                -2.6415014266967773
            ],
            "type" : "VEC3"
        },
        {
            "bufferView" : 1,
            "componentType" : 5126,
            "count" : 2884,
            "type" : "VEC3"
        },
        {
            "bufferView" : 2,
            "componentType" : 5126,
            "count" : 2884,
            "type" : "VEC2"
        },
        {
            "bufferView" : 3,
            "componentType" : 5123,
            "count" : 4326,
            "type" : "SCALAR"
        }
    ],
    "bufferViews" : [
        {
            "buffer" : 0,
            "byteLength" : 34608,
            "byteOffset" : 0
        },
        {
            "buffer" : 0,
            "byteLength" : 34608,
            "byteOffset" : 34608
        },
        {
            "buffer" : 0,
            "byteLength" : 23072,
            "byteOffset" : 69216
        },
        {
            "buffer" : 0,
            "byteLength" : 8652,
            "byteOffset" : 92288
        },
        {
            "buffer" : 0,
            "byteLength" : 233658,
            "byteOffset" : 100940
        },
        {
            "buffer" : 0,
            "byteLength" : 101038,
            "byteOffset" : 334600
        }
    ],
    "buffers" : [
        {
            "byteLength" : 435640,
            "uri" : "data:application/octet-stream;base64,"
        }
    ]
}
