{
    "asset" : {
        "generator" : "Khronos glTF Blender I/O v1.2.75",
        "version" : "2.0"
    },
    "scene" : 0,
    "scenes" : [
        {
            "name" : "Scene",
            "nodes" : [
                0
            ]
        }
    ],
    "nodes" : [
        {
            "mesh" : 0,
            "name" : "Grupo_de_sillas.001",
            "rotation" : [
                0,
                -0.70710688829422,
                0,
                0.7071067094802856
            ],
            "scale" : [
                0.09667810052633286,
                0.09667810052633286,
                0.09667810052633286
            ],
            "translation" : [
                -1.3041123151779175,
                0.4119189977645874,
                2.722673177719116
            ]
        }
    ],
    "materials" : [
        {
            "doubleSided" : true,
            "emissiveFactor" : [
                0,
                0,
                0
            ],
            "name" : "Material.013",
            "pbrMetallicRoughness" : {
                "baseColorFactor" : [
                    0.004255435895174742,
                    0.004255435895174742,
                    0.004255435895174742,
                    1
                ],
                "metallicFactor" : 0,
                "roughnessFactor" : 0.5
            }
        },
        {
            "doubleSided" : true,
            "emissiveFactor" : [
                0,
                0,
                0
            ],
            "name" : "Material.014",
            "pbrMetallicRoughness" : {
                "baseColorFactor" : [
                    0.08399048447608948,
                    0.08399048447608948,
                    0.08399048447608948,
                    1
                ],
                "metallicFactor" : 0.8941176533699036,
                "roughnessFactor" : 0.2294117510318756
            }
        },
        {
            "doubleSided" : true,
            "emissiveFactor" : [
                0,
                0,
                0
            ],
            "name" : "Material.015",
            "pbrMetallicRoughness" : {
                "baseColorFactor" : [
                    0.032440755516290665,
                    0.0002204423217335716,
                    0,
                    1
                ],
                "metallicFactor" : 0,
                "roughnessFactor" : 0.5
            }
        }
    ],
    "meshes" : [
        {
            "name" : "Cube.029",
            "primitives" : [
                {
                    "attributes" : {
                        "POSITION" : 0,
                        "NORMAL" : 1,
                        "TEXCOORD_0" : 2
                    },
                    "indices" : 3,
                    "material" : 0
                },
                {
                    "attributes" : {
                        "POSITION" : 4,
                        "NORMAL" : 5,
                        "TEXCOORD_0" : 6
                    },
                    "indices" : 7,
                    "material" : 1
                },
                {
                    "attributes" : {
                        "POSITION" : 8,
                        "NORMAL" : 9,
                        "TEXCOORD_0" : 10
                    },
                    "indices" : 11,
                    "material" : 2
                }
            ]
        }
    ],
    "accessors" : [
        {
            "bufferView" : 0,
            "componentType" : 5126,
            "count" : 3664,
            "max" : [
                0.9283766150474548,
                0.9094752073287964,
                1.181033968925476
            ],
            "min" : [
                -1.3476442098617554,
                -1.787706971168518,
                -1.2009655237197876
            ],
            "type" : "VEC3"
        },
        {
            "bufferView" : 1,
            "componentType" : 5126,
            "count" : 3664,
            "type" : "VEC3"
        },
        {
            "bufferView" : 2,
            "componentType" : 5126,
            "count" : 3664,
            "type" : "VEC2"
        },
        {
            "bufferView" : 3,
            "componentType" : 5123,
            "count" : 7152,
            "type" : "SCALAR"
        },
        {
            "bufferView" : 4,
            "componentType" : 5126,
            "count" : 960,
            "max" : [
                0.9210981726646423,
                -1.4669228792190552,
                1.1911457777023315
            ],
            "min" : [
                -1.367864966392517,
                -1.7789238691329956,
                -1.2043601274490356
            ],
            "type" : "VEC3"
        },
        {
            "bufferView" : 5,
            "componentType" : 5126,
            "count" : 960,
            "type" : "VEC3"
        },
        {
            "bufferView" : 6,
            "componentType" : 5126,
            "count" : 960,
            "type" : "VEC2"
        },
        {
            "bufferView" : 7,
            "componentType" : 5123,
            "count" : 4740,
            "type" : "SCALAR"
        },
        {
            "bufferView" : 8,
            "componentType" : 5126,
            "count" : 519,
            "max" : [
                0.8143700957298279,
                2.5414929389953613,
                1.1242245435714722
            ],
            "min" : [
                -1.1353906393051147,
                -0.39558911323547363,
                -1.0809308290481567
            ],
            "type" : "VEC3"
        },
        {
            "bufferView" : 9,
            "componentType" : 5126,
            "count" : 519,
            "type" : "VEC3"
        },
        {
            "bufferView" : 10,
            "componentType" : 5126,
            "count" : 519,
            "type" : "VEC2"
        },
        {
            "bufferView" : 11,
            "componentType" : 5123,
            "count" : 2028,
            "type" : "SCALAR"
        }
    ],
    "bufferViews" : [
        {
            "buffer" : 0,
            "byteLength" : 43968,
            "byteOffset" : 0
        },
        {
            "buffer" : 0,
            "byteLength" : 43968,
            "byteOffset" : 43968
        },
        {
            "buffer" : 0,
            "byteLength" : 29312,
            "byteOffset" : 87936
        },
        {
            "buffer" : 0,
            "byteLength" : 14304,
            "byteOffset" : 117248
        },
        {
            "buffer" : 0,
            "byteLength" : 11520,
            "byteOffset" : 131552
        },
        {
            "buffer" : 0,
            "byteLength" : 11520,
            "byteOffset" : 143072
        },
        {
            "buffer" : 0,
            "byteLength" : 7680,
            "byteOffset" : 154592
        },
        {
            "buffer" : 0,
            "byteLength" : 9480,
            "byteOffset" : 162272
        },
        {
            "buffer" : 0,
            "byteLength" : 6228,
            "byteOffset" : 171752
        },
        {
            "buffer" : 0,
            "byteLength" : 6228,
            "byteOffset" : 177980
        },
        {
            "buffer" : 0,
            "byteLength" : 4152,
            "byteOffset" : 184208
        },
        {
            "buffer" : 0,
            "byteLength" : 4056,
            "byteOffset" : 188360
        }
    ],
    "buffers" : [
        {
            "byteLength" : 192416,
            "uri" : "data:application/octet-stream;base64,"
        }
    ]
}
