{
    "asset" : {
        "generator" : "Khronos glTF Blender I/O v1.1.46",
        "version" : "2.0"
    },
    "scene" : 0,
    "scenes" : [
        {
            "name" : "Scene",
            "nodes" : [
                0
            ]
        }
    ],
    "nodes" : [
        {
            "mesh" : 0,
            "name" : "mesa_interactiva_1",
            "translation" : [
                -0.9771606922149658,
                0.39354538917541504,
                1.7057197093963623
            ]
        }
    ],
    "materials" : [
        {
            "doubleSided" : true,
            "emissiveFactor" : [
                0,
                0,
                0
            ],
            "name" : "Material0",
            "pbrMetallicRoughness" : {
                "baseColorFactor" : [
                    0.018341392278671265,
                    0.018341392278671265,
                    0.018341392278671265,
                    1
                ],
                "metallicFactor" : 0.5838509202003479,
                "roughnessFactor" : 0.19764657318592072
            }
        },
        {
            "doubleSided" : true,
            "emissiveFactor" : [
                0,
                0,
                0
            ],
            "name" : "Material1",
            "pbrMetallicRoughness" : {
                "baseColorFactor" : [
                    0,
                    0,
                    0,
                    1
                ],
                "metallicFactor" : 0,
                "roughnessFactor" : 0
            }
        },
        {
            "doubleSided" : true,
            "emissiveFactor" : [
                0,
                0,
                0
            ],
            "name" : "Material2",
            "pbrMetallicRoughness" : {
                "baseColorFactor" : [
                    1,
                    1,
                    1,
                    1
                ],
                "metallicFactor" : 0.7701863646507263,
                "roughnessFactor" : 0.19143539667129517
            }
        }
    ],
    "meshes" : [
        {
            "name" : "mesa_interactiva_1",
            "primitives" : [
                {
                    "attributes" : {
                        "POSITION" : 0,
                        "TEXCOORD_0" : 1
                    },
                    "indices" : 2,
                    "material" : 0
                },
                {
                    "attributes" : {
                        "POSITION" : 3,
                        "TEXCOORD_0" : 4
                    },
                    "indices" : 5,
                    "material" : 1
                },
                {
                    "attributes" : {
                        "POSITION" : 6,
                        "TEXCOORD_0" : 7
                    },
                    "indices" : 8,
                    "material" : 2
                }
            ]
        }
    ],
    "accessors" : [
        {
            "bufferView" : 0,
            "componentType" : 5126,
            "count" : 32,
            "max" : [
                0.36414432525634766,
                0.08186236023902893,
                0.9981297254562378
            ],
            "min" : [
                -0.3679504990577698,
                0.06547240167856216,
                -1.0018699169158936
            ],
            "type" : "VEC3"
        },
        {
            "bufferView" : 1,
            "componentType" : 5126,
            "count" : 32,
            "type" : "VEC2"
        },
        {
            "bufferView" : 2,
            "componentType" : 5123,
            "count" : 72,
            "type" : "SCALAR"
        },
        {
            "bufferView" : 3,
            "componentType" : 5126,
            "count" : 4,
            "max" : [
                0.3304538428783417,
                0.08186236023902893,
                0.9645040035247803
            ],
            "min" : [
                -0.3267931640148163,
                0.08186236023902893,
                -0.9682445526123047
            ],
            "type" : "VEC3"
        },
        {
            "bufferView" : 4,
            "componentType" : 5126,
            "count" : 4,
            "type" : "VEC2"
        },
        {
            "bufferView" : 5,
            "componentType" : 5123,
            "count" : 6,
            "type" : "SCALAR"
        },
        {
            "bufferView" : 6,
            "componentType" : 5126,
            "count" : 154,
            "max" : [
                0.36414432525634766,
                0.06547240167856216,
                0.9981297254562378
            ],
            "min" : [
                -0.3679504990577698,
                -0.18016457557678223,
                -1.0018699169158936
            ],
            "type" : "VEC3"
        },
        {
            "bufferView" : 7,
            "componentType" : 5126,
            "count" : 154,
            "type" : "VEC2"
        },
        {
            "bufferView" : 8,
            "componentType" : 5123,
            "count" : 288,
            "type" : "SCALAR"
        }
    ],
    "bufferViews" : [
        {
            "buffer" : 0,
            "byteLength" : 384,
            "byteOffset" : 0
        },
        {
            "buffer" : 0,
            "byteLength" : 256,
            "byteOffset" : 384
        },
        {
            "buffer" : 0,
            "byteLength" : 144,
            "byteOffset" : 640
        },
        {
            "buffer" : 0,
            "byteLength" : 48,
            "byteOffset" : 784
        },
        {
            "buffer" : 0,
            "byteLength" : 32,
            "byteOffset" : 832
        },
        {
            "buffer" : 0,
            "byteLength" : 12,
            "byteOffset" : 864
        },
        {
            "buffer" : 0,
            "byteLength" : 1848,
            "byteOffset" : 876
        },
        {
            "buffer" : 0,
            "byteLength" : 1232,
            "byteOffset" : 2724
        },
        {
            "buffer" : 0,
            "byteLength" : 576,
            "byteOffset" : 3956
        }
    ],
    "buffers" : [
        {
            "byteLength" : 4532,
            "uri" : "data:application/octet-stream;base64,"
        }
    ]
}
