{
    "asset" : {
        "generator" : "Khronos glTF Blender I/O v1.3.48",
        "version" : "2.0"
    },
    "scene" : 0,
    "scenes" : [
        {
            "name" : "Scene",
            "nodes" : [
                0
            ]
        }
    ],
    "nodes" : [
        {
            "mesh" : 0,
            "name" : "mesa_interactiva_1"
        }
    ],
    "materials" : [
        {
            "doubleSided" : true,
            "emissiveFactor" : [
                0,
                0,
                0
            ],
            "name" : "Material.050",
            "pbrMetallicRoughness" : {
                "baseColorFactor" : [
                    0.018341392278671265,
                    0.018341392278671265,
                    0.018341392278671265,
                    1
                ],
                "metallicFactor" : 0.5838509202003479,
                "roughnessFactor" : 0.19764657318592072
            }
        },
        {
            "doubleSided" : true,
            "emissiveFactor" : [
                0,
                0,
                0
            ],
            "name" : "Material.051",
            "pbrMetallicRoughness" : {
                "baseColorFactor" : [
                    0,
                    0,
                    0,
                    1
                ],
                "metallicFactor" : 0,
                "roughnessFactor" : 0
            }
        },
        {
            "doubleSided" : true,
            "emissiveFactor" : [
                0,
                0,
                0
            ],
            "name" : "Material.052",
            "pbrMetallicRoughness" : {
                "baseColorFactor" : [
                    1,
                    1,
                    1,
                    1
                ],
                "metallicFactor" : 0.7701863646507263,
                "roughnessFactor" : 0.19143539667129517
            }
        }
    ],
    "meshes" : [
        {
            "name" : "Cube.028",
            "primitives" : [
                {
                    "attributes" : {
                        "POSITION" : 0,
                        "NORMAL" : 1,
                        "TEXCOORD_0" : 2
                    },
                    "indices" : 3,
                    "material" : 0
                },
                {
                    "attributes" : {
                        "POSITION" : 4,
                        "NORMAL" : 5,
                        "TEXCOORD_0" : 6
                    },
                    "indices" : 7,
                    "material" : 1
                },
                {
                    "attributes" : {
                        "POSITION" : 8,
                        "NORMAL" : 9,
                        "TEXCOORD_0" : 10
                    },
                    "indices" : 11,
                    "material" : 2
                }
            ]
        }
    ],
    "accessors" : [
        {
            "bufferView" : 0,
            "componentType" : 5126,
            "count" : 32,
            "max" : [
                0.36414432525634766,
                0.08186236023902893,
                0.9981297254562378
            ],
            "min" : [
                -0.3679504990577698,
                0.06547240167856216,
                -1.0018699169158936
            ],
            "type" : "VEC3"
        },
        {
            "bufferView" : 1,
            "componentType" : 5126,
            "count" : 32,
            "type" : "VEC3"
        },
        {
            "bufferView" : 2,
            "componentType" : 5126,
            "count" : 32,
            "type" : "VEC2"
        },
        {
            "bufferView" : 3,
            "componentType" : 5123,
            "count" : 72,
            "type" : "SCALAR"
        },
        {
            "bufferView" : 4,
            "componentType" : 5126,
            "count" : 4,
            "max" : [
                0.3304538428783417,
                0.08186236023902893,
                0.9645040035247803
            ],
            "min" : [
                -0.3267931640148163,
                0.08186236023902893,
                -0.9682445526123047
            ],
            "type" : "VEC3"
        },
        {
            "bufferView" : 5,
            "componentType" : 5126,
            "count" : 4,
            "type" : "VEC3"
        },
        {
            "bufferView" : 6,
            "componentType" : 5126,
            "count" : 4,
            "type" : "VEC2"
        },
        {
            "bufferView" : 7,
            "componentType" : 5123,
            "count" : 6,
            "type" : "SCALAR"
        },
        {
            "bufferView" : 8,
            "componentType" : 5126,
            "count" : 205,
            "max" : [
                0.36414432525634766,
                0.06547240167856216,
                0.9981297254562378
            ],
            "min" : [
                -0.3679504990577698,
                -0.18016457557678223,
                -1.0018699169158936
            ],
            "type" : "VEC3"
        },
        {
            "bufferView" : 9,
            "componentType" : 5126,
            "count" : 205,
            "type" : "VEC3"
        },
        {
            "bufferView" : 10,
            "componentType" : 5126,
            "count" : 205,
            "type" : "VEC2"
        },
        {
            "bufferView" : 11,
            "componentType" : 5123,
            "count" : 282,
            "type" : "SCALAR"
        }
    ],
    "bufferViews" : [
        {
            "buffer" : 0,
            "byteLength" : 384,
            "byteOffset" : 0
        },
        {
            "buffer" : 0,
            "byteLength" : 384,
            "byteOffset" : 384
        },
        {
            "buffer" : 0,
            "byteLength" : 256,
            "byteOffset" : 768
        },
        {
            "buffer" : 0,
            "byteLength" : 144,
            "byteOffset" : 1024
        },
        {
            "buffer" : 0,
            "byteLength" : 48,
            "byteOffset" : 1168
        },
        {
            "buffer" : 0,
            "byteLength" : 48,
            "byteOffset" : 1216
        },
        {
            "buffer" : 0,
            "byteLength" : 32,
            "byteOffset" : 1264
        },
        {
            "buffer" : 0,
            "byteLength" : 12,
            "byteOffset" : 1296
        },
        {
            "buffer" : 0,
            "byteLength" : 2460,
            "byteOffset" : 1308
        },
        {
            "buffer" : 0,
            "byteLength" : 2460,
            "byteOffset" : 3768
        },
        {
            "buffer" : 0,
            "byteLength" : 1640,
            "byteOffset" : 6228
        },
        {
            "buffer" : 0,
            "byteLength" : 564,
            "byteOffset" : 7868
        }
    ],
    "buffers" : [
        {
            "byteLength" : 8432,
            "uri" : "data:application/octet-stream;base64,"
        }
    ]
}
