{
    "asset" : {
        "generator" : "Khronos glTF Blender I/O v1.2.75",
        "version" : "2.0"
    },
    "scene" : 0,
    "scenes" : [
        {
            "extras" : {
                "glTF2ExportSettings" : {
                    "export_apply" : 1,
                    "export_extras" : 1,
                    "export_format" : "GLTF_EMBEDDED",
                    "export_image_format" : "JPEG"
                }
            },
            "name" : "Scene",
            "nodes" : [
                0
            ]
        }
    ],
    "nodes" : [
        {
            "mesh" : 0,
            "name" : "Plane.005",
            "translation" : [
                -1.7744486331939697,
                -5.159036636352539,
                1.9672269821166992
            ]
        }
    ],
    "materials" : [
        {
            "doubleSided" : true,
            "emissiveFactor" : [
                0,
                0,
                0
            ],
            "name" : "Material.053",
            "pbrMetallicRoughness" : {
                "baseColorTexture" : {
                    "index" : 0,
                    "texCoord" : 0
                },
                "metallicFactor" : 0,
                "metallicRoughnessTexture" : {
                    "index" : 1,
                    "texCoord" : 0
                }
            }
        },
        {
            "doubleSided" : true,
            "emissiveFactor" : [
                0,
                0,
                0
            ],
            "name" : "Material.055",
            "pbrMetallicRoughness" : {
                "baseColorFactor" : [
                    0.800000011920929,
                    0.800000011920929,
                    0.800000011920929,
                    1
                ],
                "metallicFactor" : 0,
                "roughnessFactor" : 0
            }
        }
    ],
    "meshes" : [
        {
            "name" : "Plane.003",
            "primitives" : [
                {
                    "attributes" : {
                        "POSITION" : 0,
                        "NORMAL" : 1,
                        "TEXCOORD_0" : 2
                    },
                    "indices" : 3,
                    "material" : 0
                },
                {
                    "attributes" : {
                        "POSITION" : 4,
                        "NORMAL" : 5,
                        "TEXCOORD_0" : 6
                    },
                    "indices" : 7,
                    "material" : 1
                }
            ]
        }
    ],
    "textures" : [
        {
            "source" : 0
        },
        {
            "source" : 1
        }
    ],
    "images" : [
        {
            "bufferView" : 4,
            "mimeType" : "image/jpeg",
            "name" : "paredes_2_dif"
        },
        {
            "bufferView" : 5,
            "mimeType" : "image/jpeg",
            "name" : "paredes_2_rougne"
        }
    ],
    "accessors" : [
        {
            "bufferView" : 0,
            "componentType" : 5126,
            "count" : 244,
            "max" : [
                2.23921275138855,
                0.4966065287590027,
                2.4949657917022705
            ],
            "min" : [
                -0.5542908906936646,
                -1.0096025466918945,
                -2.569422721862793
            ],
            "type" : "VEC3"
        },
        {
            "bufferView" : 1,
            "componentType" : 5126,
            "count" : 244,
            "type" : "VEC3"
        },
        {
            "bufferView" : 2,
            "componentType" : 5126,
            "count" : 244,
            "type" : "VEC2"
        },
        {
            "bufferView" : 3,
            "componentType" : 5123,
            "count" : 372,
            "type" : "SCALAR"
        },
        {
            "bufferView" : 6,
            "componentType" : 5126,
            "count" : 32,
            "max" : [
                -0.4796168804168701,
                0.4966064989566803,
                1.7290154695510864
            ],
            "min" : [
                -0.5404707193374634,
                -0.969144880771637,
                -1.6887035369873047
            ],
            "type" : "VEC3"
        },
        {
            "bufferView" : 7,
            "componentType" : 5126,
            "count" : 32,
            "type" : "VEC3"
        },
        {
            "bufferView" : 8,
            "componentType" : 5126,
            "count" : 32,
            "type" : "VEC2"
        },
        {
            "bufferView" : 9,
            "componentType" : 5123,
            "count" : 48,
            "type" : "SCALAR"
        }
    ],
    "bufferViews" : [
        {
            "buffer" : 0,
            "byteLength" : 2928,
            "byteOffset" : 0
        },
        {
            "buffer" : 0,
            "byteLength" : 2928,
            "byteOffset" : 2928
        },
        {
            "buffer" : 0,
            "byteLength" : 1952,
            "byteOffset" : 5856
        },
        {
            "buffer" : 0,
            "byteLength" : 744,
            "byteOffset" : 7808
        },
        {
            "buffer" : 0,
            "byteLength" : 459119,
            "byteOffset" : 8552
        },
        {
            "buffer" : 0,
            "byteLength" : 204564,
            "byteOffset" : 467672
        },
        {
            "buffer" : 0,
            "byteLength" : 384,
            "byteOffset" : 672236
        },
        {
            "buffer" : 0,
            "byteLength" : 384,
            "byteOffset" : 672620
        },
        {
            "buffer" : 0,
            "byteLength" : 256,
            "byteOffset" : 673004
        },
        {
            "buffer" : 0,
            "byteLength" : 96,
            "byteOffset" : 673260
        }
    ],
    "buffers" : [
        {
            "byteLength" : 673356,
            "uri" : "data:application/octet-stream;base64,"
        }
    ]
}
