<?xml version="1.0" encoding="UTF-8" standalone="no"?>
<svg
   width="52"
   height="25"
   viewBox="0 0 52 25"
   fill="none"
   version="1.1"
   id="svg8"
   sodipodi:docname="Group 464.svg"
   inkscape:version="1.1 (c68e22c387, 2021-05-23)"
   xmlns:inkscape="http://www.inkscape.org/namespaces/inkscape"
   xmlns:sodipodi="http://sodipodi.sourceforge.net/DTD/sodipodi-0.dtd"
   xmlns="http://www.w3.org/2000/svg"
   xmlns:svg="http://www.w3.org/2000/svg">
  <defs
     id="defs12" />
  <sodipodi:namedview
     id="namedview10"
     pagecolor="#ffffff"
     bordercolor="#999999"
     borderopacity="1"
     inkscape:pageshadow="0"
     inkscape:pageopacity="0"
     inkscape:pagecheckerboard="0"
     showgrid="false"
     inkscape:zoom="21.807692"
     inkscape:cx="26.022928"
     inkscape:cy="12.495591"
     inkscape:window-width="1920"
     inkscape:window-height="1017"
     inkscape:window-x="-8"
     inkscape:window-y="-8"
     inkscape:window-maximized="1"
     inkscape:current-layer="svg8" />
  <path
     id="rect2"
     style="color:#000000;fill:#ffff00;-inkscape-stroke:none"
     d="M 11 0 C 4.9319519 0 0 4.9319519 0 11 L 0 14 C 0 20.068048 4.9319519 25 11 25 L 32 25 C 36.765179 25 40.827786 21.957538 42.353516 17.712891 L 44.384766 14.447266 L 49.5 21.5 L 52 19.5 L 46.033203 11.792969 L 51.5 3 L 49 1.5 L 44.050781 9.2324219 L 42.164062 6.7949219 C 40.510121 2.8089017 36.579186 0 32 0 L 11 0 z M 11 3 L 32 3 C 36.457941 3 40 6.5420586 40 11 L 40 14 C 40 18.457941 36.457941 22 32 22 L 11 22 C 6.5420586 22 3 18.457941 3 14 L 3 11 C 3 6.5420586 6.5420586 3 11 3 z " />
</svg>
