<svg width="18" height="20" viewBox="0 0 18 20" fill="none" xmlns="http://www.w3.org/2000/svg">
<path d="M1.49037 11.7323C1.18682 11.5566 0.934811 11.3042 0.759612 11.0004C0.584413 10.6966 0.492188 10.352 0.492188 10.0013C0.492188 9.65058 0.584413 9.30603 0.759612 9.00221C0.934811 8.69839 1.18682 8.44598 1.49037 8.2703L14.5004 0.739302C14.8043 0.56381 15.1491 0.471397 15.5001 0.471352C15.8511 0.471306 16.1959 0.563625 16.4999 0.739038C16.8039 0.914452 17.0564 1.16678 17.232 1.47067C17.4076 1.77456 17.5002 2.11932 17.5004 2.4703V17.5323C17.5002 17.8833 17.4076 18.228 17.232 18.5319C17.0564 18.8358 16.8039 19.0882 16.4999 19.2636C16.1959 19.439 15.8511 19.5313 15.5001 19.5312C15.1491 19.5312 14.8043 19.4388 14.5004 19.2633L1.49037 11.7323Z" fill="#1EA7D6"/>
</svg>
