<?xml version="1.0" encoding="UTF-8" standalone="no"?>
<svg
   width="27"
   height="20"
   viewBox="0 0 27 20"
   fill="none"
   version="1.1"
   id="svg8"
   sodipodi:docname="icondesg.svg"
   inkscape:version="1.1 (c68e22c387, 2021-05-23)"
   xmlns:inkscape="http://www.inkscape.org/namespaces/inkscape"
   xmlns:sodipodi="http://sodipodi.sourceforge.net/DTD/sodipodi-0.dtd"
   xmlns="http://www.w3.org/2000/svg"
   xmlns:svg="http://www.w3.org/2000/svg">
  <defs
     id="defs12" />
  <sodipodi:namedview
     id="namedview10"
     pagecolor="#ffffff"
     bordercolor="#999999"
     borderopacity="1"
     inkscape:pageshadow="0"
     inkscape:pageopacity="0"
     inkscape:pagecheckerboard="0"
     showgrid="false"
     inkscape:zoom="20.8"
     inkscape:cx="16.5625"
     inkscape:cy="8.7740385"
     inkscape:window-width="1920"
     inkscape:window-height="1017"
     inkscape:window-x="-8"
     inkscape:window-y="-8"
     inkscape:window-maximized="1"
     inkscape:current-layer="svg8" />
  <path
     style="color:#000000;fill:#009f41;-inkscape-stroke:none;fill-opacity:1"
     d="M 0,3 V 3.5 17 H 27 V 3 Z M 1,4 H 26 V 16 H 1 Z"
     id="rect2" />
  <path
     d="M 8.90606,3.29882 13.5,1.1079 18.0939,3.29881 22.4744,5.6109 22.5852,10 22.4744,14.3891 18.0939,16.7012 13.5,18.8921 8.90604,16.7012 4.52561,14.3891 4.41482,10 4.52561,5.6109 Z"
     fill="#F9F995"
     stroke="#FFFF00"
     stroke-width="2"
     id="path4"
     style="font-variation-settings:normal;vector-effect:none;fill:#f9f995;fill-opacity:1;stroke:none;stroke-width:2;stroke-linecap:butt;stroke-linejoin:miter;stroke-miterlimit:4;stroke-dasharray:none;stroke-dashoffset:0;stroke-opacity:1;-inkscape-stroke:none;stop-color:#000000" />
  <path
     style="color:#000000;fill:#009f41;-inkscape-stroke:none;fill-opacity:1"
     d="M 13.5,0 8.4570313,2.4042969 8.4394531,2.4140625 3.5410156,5 3.4140625,10 3.5410156,15 8.4570313,17.595703 13.5,20 18.542969,17.595703 23.458984,15 23.585937,10 23.458984,5 18.542969,2.4042969 Z m 0,2.2148438 4.144531,1.9785156 3.845703,2.0292968 L 21.583984,10 21.490234,13.777344 17.644531,15.806641 13.5,17.785156 9.3554688,15.806641 5.5097656,13.777344 5.4160156,10 5.5097656,6.2226562 9.3730469,4.1835937 Z"
     id="path4-6" />
  <path
     style="color:#000000;fill:#acc19f;-inkscape-stroke:none"
     d="m 13.5,5 c -2.755499,0 -5.0000002,2.2445013 -5.0000002,5 0,2.755499 2.2445012,5 5.0000002,5 2.755499,0 5,-2.244501 5,-5 0,-2.7554987 -2.244501,-5 -5,-5 z m 0,1 c 2.215059,0 4,1.7849409 4,4 0,2.215059 -1.784941,4 -4,4 -2.215059,0 -4.0000002,-1.784941 -4.0000002,-4 0,-2.2150591 1.7849412,-4 4.0000002,-4 z"
     id="circle6-8" />
</svg>
