<svg width="145" height="145" viewBox="0 0 145 145" fill="none" xmlns="http://www.w3.org/2000/svg">
<path d="M72.4835 102.662C55.8187 102.662 42.3384 89.1813 42.3384 72.5C42.3384 55.8352 55.8187 42.3549 72.4835 42.3549C89.1483 42.3549 102.645 55.8352 102.645 72.5C102.645 89.1813 89.1483 102.662 72.4835 102.662ZM144.984 85.6173V59.4157H128.269C126.834 53.2613 124.425 47.5193 121.207 42.3219L133.005 30.5081L114.475 11.9788L102.678 23.7927C97.4642 20.5587 91.7388 18.1497 85.5843 16.7143V0H59.3827V16.7143C53.2613 18.1497 47.5029 20.5587 42.3219 23.7927L30.4916 11.9788L11.9623 30.5081L23.7927 42.3219C20.5752 47.5193 18.1498 53.2613 16.7143 59.4157H0V85.6173H16.7143C18.1498 91.7222 20.5752 97.4972 23.7927 102.678L11.9623 114.508L30.4916 133.038L42.3219 121.224C47.5029 124.425 53.2613 126.85 59.3827 128.286V145H85.5843V128.286C91.7388 126.85 97.4642 124.425 102.678 121.224L114.475 133.038L133.005 114.508L121.207 102.678C124.425 97.4972 126.834 91.7222 128.269 85.6173H144.984Z" fill="white"/>
</svg>
