<svg width="904" height="372" viewBox="0 0 904 372" fill="none" xmlns="http://www.w3.org/2000/svg">
<path d="M70.1436 371V219.042C35.4044 219.039 35.4044 169.27 0.679688 169.27V371H70.1436Z" fill="url(#paint0_linear)"/>
<g opacity="0.410004">
<g opacity="0.410004">
<g opacity="0.410004">
<g opacity="0.410004">
<g opacity="0.410004">
<g opacity="0.410004">
<path opacity="0.410004" d="M278.53 371V141.065C278.523 141.065 278.512 141.065 278.505 141.065C243.784 141.065 243.78 341.78 209.066 341.817V371H278.53Z" fill="url(#paint1_linear)"/>
</g>
</g>
</g>
</g>
</g>
</g>
<path d="M486.921 371V97.0962C486.914 97.0962 486.91 97.0962 486.903 97.0962C452.185 97.0962 452.178 140.217 417.457 140.234V371H486.921Z" fill="url(#paint2_linear)"/>
<path d="M347.995 371V190.838H347.97C313.256 190.838 313.245 141.089 278.531 141.065V371H347.995Z" fill="url(#paint3_linear)"/>
<g opacity="0.410004">
<g opacity="0.410004">
<g opacity="0.410004">
<g opacity="0.410004">
<g opacity="0.410004">
<g opacity="0.410004">
<path opacity="0.410004" d="M417.456 371V140.234H417.435C382.721 140.234 382.714 190.815 347.996 190.838V371H417.456Z" fill="url(#paint4_linear)"/>
</g>
</g>
</g>
</g>
</g>
</g>
<g opacity="0.410004">
<g opacity="0.410004">
<g opacity="0.410004">
<g opacity="0.410004">
<g opacity="0.410004">
<g opacity="0.410004">
<path opacity="0.410004" d="M139.612 371V130.279H139.598C104.873 130.279 104.873 219.042 70.1521 219.042H70.1484V371H139.612Z" fill="url(#paint5_linear)"/>
</g>
</g>
</g>
</g>
</g>
</g>
<path d="M215.398 371V341.317H215.387C177.485 341.317 177.478 126.185 139.605 126.132V371H215.398Z" fill="url(#paint6_linear)"/>
<g opacity="0.410004">
<g opacity="0.410004">
<g opacity="0.410004">
<g opacity="0.410004">
<g opacity="0.410004">
<g opacity="0.410004">
<path opacity="0.410004" d="M834.23 371V190.01C834.219 190.01 834.212 190.007 834.208 190.007C799.494 190.007 799.483 219.029 764.77 219.042V371H834.23Z" fill="url(#paint7_linear)"/>
</g>
</g>
</g>
</g>
</g>
</g>
<g opacity="0.410004">
<g opacity="0.410004">
<g opacity="0.410004">
<g opacity="0.410004">
<g opacity="0.410004">
<g opacity="0.410004">
<path opacity="0.410004" d="M556.382 371V48.9863C556.371 48.9863 556.357 48.9829 556.346 48.9829C521.628 48.9829 521.621 97.0795 486.918 97.0962V371H556.382Z" fill="url(#paint8_linear)"/>
</g>
</g>
</g>
</g>
</g>
</g>
<path d="M764.769 371V219.042C764.758 219.042 764.751 219.042 764.74 219.042C730.026 219.042 730.015 131.986 695.305 131.939V371H764.769Z" fill="url(#paint9_linear)"/>
<path d="M903.691 371V219.042C868.955 219.042 868.948 190.024 834.23 190.01V371H903.691Z" fill="url(#paint10_linear)"/>
<path d="M625.843 371V242.271C625.832 242.271 625.821 242.271 625.814 242.271C591.1 242.271 591.089 49.1104 556.383 48.9863V371H625.843Z" fill="url(#paint11_linear)"/>
<g opacity="0.410004">
<g opacity="0.410004">
<g opacity="0.410004">
<g opacity="0.410004">
<g opacity="0.410004">
<g opacity="0.410004">
<path opacity="0.410004" d="M695.307 371V131.939C695.297 131.939 695.286 131.939 695.279 131.939C660.565 131.939 660.554 242.204 625.844 242.271V371H695.307Z" fill="url(#paint12_linear)"/>
</g>
</g>
</g>
</g>
</g>
</g>
<path d="M519.405 71.6525C510.88 83.4579 502.836 94.6095 486.901 94.6095C468.201 94.6095 458.966 106.08 450.035 117.171C441.521 127.752 433.469 137.747 417.437 137.747C398.611 137.747 389.38 151.192 380.455 164.194C371.931 176.617 363.875 188.348 347.97 188.348C332.064 188.348 324.016 176.814 315.495 164.6C306.563 151.809 297.332 138.579 278.506 138.579C258.865 138.579 250.651 186.065 241.138 241.048C233.562 284.836 224.14 339.333 209.06 339.333C193.984 339.333 184.547 281.846 176.964 235.653C167.459 177.777 159.252 127.793 139.593 127.793C120.356 127.793 111.204 151.185 102.358 173.814C94.1335 194.826 85.6344 216.556 70.1472 216.556C54.2272 216.556 46.1752 205.015 37.6473 192.801C28.7227 180.006 19.4952 166.783 0.679688 166.783V171.758C16.5853 171.758 24.6337 183.296 33.158 195.507C42.0898 208.301 51.3208 221.531 70.1472 221.531C89.3846 221.531 98.5363 198.139 107.385 175.51C115.607 154.501 124.106 132.768 139.593 132.768C154.655 132.768 164.088 190.233 171.671 236.408C181.176 294.305 189.387 344.312 209.06 344.312C228.698 344.312 236.912 296.823 246.425 241.839C254 198.048 263.423 143.554 278.506 143.554C294.426 143.554 302.478 155.091 311.002 167.309C319.927 180.1 329.158 193.327 347.97 193.327C366.811 193.327 376.042 179.879 384.97 166.87C393.491 154.451 401.543 142.723 417.437 142.723C436.148 142.723 445.387 131.249 454.322 120.155C462.839 109.577 470.884 99.5884 486.901 99.5884C505.691 99.5884 514.922 86.7973 523.847 74.4253C532.364 62.6233 540.416 51.4718 556.347 51.4718C571.452 51.4718 580.874 103.914 588.45 146.059C597.966 199.02 606.191 244.763 625.814 244.763C645.192 244.763 653.897 217.092 663.124 187.795C671.386 161.559 679.924 134.428 695.275 134.428C710.791 134.428 719.286 155.749 727.515 176.365C736.364 198.571 745.523 221.531 764.742 221.531C783.139 221.531 792.359 213.827 801.277 206.376C809.812 199.238 817.878 192.499 834.206 192.499C850.555 192.499 858.618 199.238 867.156 206.376C875.612 213.444 884.342 220.737 900.915 221.471C902.418 221.538 903.68 220.378 903.68 218.973C903.68 217.629 902.516 216.562 901.07 216.495C886.455 215.815 878.811 209.421 870.741 202.675C861.82 195.225 852.603 187.52 834.206 187.52C815.823 187.52 806.606 195.225 797.693 202.672C789.157 209.813 781.091 216.556 764.742 216.556C749.247 216.556 740.745 195.245 732.531 174.638C723.671 152.423 714.516 129.452 695.275 129.452C675.911 129.452 667.203 157.11 657.982 186.397C649.721 212.643 641.179 239.784 625.814 239.784C610.72 239.784 601.294 187.359 593.729 145.234C584.213 92.2524 575.985 46.4928 556.347 46.4928C537.557 46.4928 528.329 59.2839 519.405 71.6525Z" fill="url(#paint13_linear)"/>
<path d="M179.003 122.567C179.003 140.376 163.476 154.812 144.324 154.812C125.171 154.812 109.648 140.376 109.648 122.567C109.648 104.759 125.171 90.3218 144.324 90.3218C163.476 90.3218 179.003 104.759 179.003 122.567Z" fill="url(#paint14_radial)"/>
<path d="M171.358 115.934C171.358 133.743 155.832 148.18 136.679 148.18C117.526 148.18 102 133.743 102 115.934C102 98.129 117.526 83.689 136.679 83.689C155.832 83.689 171.358 98.129 171.358 115.934Z" fill="#EFEFEF"/>
<path d="M136.234 119.641C136.234 124.719 135.367 128.492 133.633 130.961C131.898 133.43 129.188 134.664 125.5 134.664C121.859 134.664 119.164 133.461 117.414 131.055C115.664 128.633 114.758 125.023 114.695 120.227V114.438C114.695 109.422 115.562 105.695 117.297 103.258C119.031 100.82 121.75 99.6016 125.453 99.6016C129.125 99.6016 131.828 100.781 133.562 103.141C135.297 105.484 136.188 109.109 136.234 114.016V119.641ZM131.898 113.711C131.898 110.039 131.383 107.367 130.352 105.695C129.32 104.008 127.688 103.164 125.453 103.164C123.234 103.164 121.617 104 120.602 105.672C119.586 107.344 119.062 109.914 119.031 113.383V120.32C119.031 124.008 119.562 126.734 120.625 128.5C121.703 130.25 123.328 131.125 125.5 131.125C127.641 131.125 129.227 130.297 130.258 128.641C131.305 126.984 131.852 124.375 131.898 120.812V113.711ZM156.039 134.195H151.68V105.297L142.938 108.508V104.57L155.359 99.9062H156.039V134.195Z" fill="#0B5CB5"/>
<path d="M320.999 133.723C320.999 151.532 305.473 165.969 286.32 165.969C267.167 165.969 251.645 151.532 251.645 133.723C251.645 115.915 267.167 101.478 286.32 101.478C305.473 101.478 320.999 115.915 320.999 133.723Z" fill="url(#paint15_radial)"/>
<path d="M313.358 127.091C313.358 144.899 297.832 159.336 278.679 159.336C259.526 159.336 244 144.899 244 127.091C244 109.285 259.526 94.8453 278.679 94.8453C297.832 94.8453 313.358 109.285 313.358 127.091Z" fill="#EFEFEF"/>
<path d="M278.234 130.797C278.234 135.875 277.367 139.648 275.633 142.117C273.898 144.586 271.188 145.82 267.5 145.82C263.859 145.82 261.164 144.617 259.414 142.211C257.664 139.789 256.758 136.18 256.695 131.383V125.594C256.695 120.578 257.562 116.852 259.297 114.414C261.031 111.977 263.75 110.758 267.453 110.758C271.125 110.758 273.828 111.938 275.562 114.297C277.297 116.641 278.188 120.266 278.234 125.172V130.797ZM273.898 124.867C273.898 121.195 273.383 118.523 272.352 116.852C271.32 115.164 269.688 114.32 267.453 114.32C265.234 114.32 263.617 115.156 262.602 116.828C261.586 118.5 261.062 121.07 261.031 124.539V131.477C261.031 135.164 261.562 137.891 262.625 139.656C263.703 141.406 265.328 142.281 267.5 142.281C269.641 142.281 271.227 141.453 272.258 139.797C273.305 138.141 273.852 135.531 273.898 131.969V124.867ZM290.094 126.18H293.352C295.398 126.148 297.008 125.609 298.18 124.562C299.352 123.516 299.938 122.102 299.938 120.32C299.938 116.32 297.945 114.32 293.961 114.32C292.086 114.32 290.586 114.859 289.461 115.938C288.352 117 287.797 118.414 287.797 120.18H283.461C283.461 117.477 284.445 115.234 286.414 113.453C288.398 111.656 290.914 110.758 293.961 110.758C297.18 110.758 299.703 111.609 301.531 113.312C303.359 115.016 304.273 117.383 304.273 120.414C304.273 121.898 303.789 123.336 302.82 124.727C301.867 126.117 300.562 127.156 298.906 127.844C300.781 128.438 302.227 129.422 303.242 130.797C304.273 132.172 304.789 133.852 304.789 135.836C304.789 138.898 303.789 141.328 301.789 143.125C299.789 144.922 297.188 145.82 293.984 145.82C290.781 145.82 288.172 144.953 286.156 143.219C284.156 141.484 283.156 139.195 283.156 136.352H287.516C287.516 138.148 288.102 139.586 289.273 140.664C290.445 141.742 292.016 142.281 293.984 142.281C296.078 142.281 297.68 141.734 298.789 140.641C299.898 139.547 300.453 137.977 300.453 135.93C300.453 133.945 299.844 132.422 298.625 131.359C297.406 130.297 295.648 129.75 293.352 129.719H290.094V126.18Z" fill="#0B5CB5"/>
<path d="M598.999 38.8797C598.999 56.6882 583.473 71.125 564.32 71.125C545.167 71.125 529.645 56.6882 529.645 38.8797C529.645 21.0711 545.167 6.6343 564.32 6.6343C583.473 6.6343 598.999 21.0711 598.999 38.8797Z" fill="url(#paint16_radial)"/>
<path d="M591.358 32.2468C591.358 50.0554 575.832 64.4922 556.679 64.4922C537.526 64.4922 522 50.0554 522 32.2468C522 14.4415 537.526 0.00150299 556.679 0.00150299C575.832 0.00150299 591.358 14.4415 591.358 32.2468Z" fill="#EFEFEF"/>
<path d="M556.234 35.9531C556.234 41.0312 555.367 44.8047 553.633 47.2734C551.898 49.7422 549.188 50.9766 545.5 50.9766C541.859 50.9766 539.164 49.7734 537.414 47.3672C535.664 44.9453 534.758 41.3359 534.695 36.5391V30.75C534.695 25.7344 535.562 22.0078 537.297 19.5703C539.031 17.1328 541.75 15.9141 545.453 15.9141C549.125 15.9141 551.828 17.0938 553.562 19.4531C555.297 21.7969 556.188 25.4219 556.234 30.3281V35.9531ZM551.898 30.0234C551.898 26.3516 551.383 23.6797 550.352 22.0078C549.32 20.3203 547.688 19.4766 545.453 19.4766C543.234 19.4766 541.617 20.3125 540.602 21.9844C539.586 23.6562 539.062 26.2266 539.031 29.6953V36.6328C539.031 40.3203 539.562 43.0469 540.625 44.8125C541.703 46.5625 543.328 47.4375 545.5 47.4375C547.641 47.4375 549.227 46.6094 550.258 44.9531C551.305 43.2969 551.852 40.6875 551.898 37.125V30.0234ZM580.094 39.0469H584.828V42.5859H580.094V50.5078H575.734V42.5859H560.195V40.0312L575.477 16.3828H580.094V39.0469ZM565.117 39.0469H575.734V22.3125L575.219 23.25L565.117 39.0469Z" fill="#0B5CB5"/>
<path d="M669.999 249.02C669.999 266.829 654.473 281.266 635.32 281.266C616.167 281.266 600.645 266.829 600.645 249.02C600.645 231.212 616.167 216.775 635.32 216.775C654.473 216.775 669.999 231.212 669.999 249.02Z" fill="url(#paint17_radial)"/>
<path d="M662.358 242.387C662.358 260.196 646.832 274.633 627.679 274.633C608.526 274.633 593 260.196 593 242.387C593 224.582 608.526 210.142 627.679 210.142C646.832 210.142 662.358 224.582 662.358 242.387Z" fill="#EFEFEF"/>
<path d="M627.234 246.094C627.234 251.172 626.367 254.945 624.633 257.414C622.898 259.883 620.188 261.117 616.5 261.117C612.859 261.117 610.164 259.914 608.414 257.508C606.664 255.086 605.758 251.477 605.695 246.68V240.891C605.695 235.875 606.562 232.148 608.297 229.711C610.031 227.273 612.75 226.055 616.453 226.055C620.125 226.055 622.828 227.234 624.562 229.594C626.297 231.938 627.188 235.562 627.234 240.469V246.094ZM622.898 240.164C622.898 236.492 622.383 233.82 621.352 232.148C620.32 230.461 618.688 229.617 616.453 229.617C614.234 229.617 612.617 230.453 611.602 232.125C610.586 233.797 610.062 236.367 610.031 239.836V246.773C610.031 250.461 610.562 253.188 611.625 254.953C612.703 256.703 614.328 257.578 616.5 257.578C618.641 257.578 620.227 256.75 621.258 255.094C622.305 253.438 622.852 250.828 622.898 247.266V240.164ZM634.781 243.539L636.516 226.523H654V230.531H640.195L639.164 239.836C640.836 238.852 642.734 238.359 644.859 238.359C647.969 238.359 650.438 239.391 652.266 241.453C654.094 243.5 655.008 246.273 655.008 249.773C655.008 253.289 654.055 256.062 652.148 258.094C650.258 260.109 647.609 261.117 644.203 261.117C641.188 261.117 638.727 260.281 636.82 258.609C634.914 256.938 633.828 254.625 633.562 251.672H637.664C637.93 253.625 638.625 255.102 639.75 256.102C640.875 257.086 642.359 257.578 644.203 257.578C646.219 257.578 647.797 256.891 648.938 255.516C650.094 254.141 650.672 252.242 650.672 249.82C650.672 247.539 650.047 245.711 648.797 244.336C647.562 242.945 645.914 242.25 643.852 242.25C641.961 242.25 640.477 242.664 639.398 243.492L638.25 244.43L634.781 243.539Z" fill="#0B5CB5"/>
<path d="M738.999 116.059C738.999 133.868 723.473 148.305 704.32 148.305C685.167 148.305 669.645 133.868 669.645 116.059C669.645 98.2508 685.167 83.814 704.32 83.814C723.473 83.814 738.999 98.2508 738.999 116.059Z" fill="url(#paint18_radial)"/>
<path d="M731.358 109.427C731.358 127.235 715.832 141.672 696.679 141.672C677.526 141.672 662 127.235 662 109.427C662 91.6212 677.526 77.1812 696.679 77.1812C715.832 77.1812 731.358 91.6212 731.358 109.427Z" fill="#EFEFEF"/>
<path d="M696.234 113.133C696.234 118.211 695.367 121.984 693.633 124.453C691.898 126.922 689.188 128.156 685.5 128.156C681.859 128.156 679.164 126.953 677.414 124.547C675.664 122.125 674.758 118.516 674.695 113.719V107.93C674.695 102.914 675.562 99.1875 677.297 96.75C679.031 94.3125 681.75 93.0938 685.453 93.0938C689.125 93.0938 691.828 94.2734 693.562 96.6328C695.297 98.9766 696.188 102.602 696.234 107.508V113.133ZM691.898 107.203C691.898 103.531 691.383 100.859 690.352 99.1875C689.32 97.5 687.688 96.6562 685.453 96.6562C683.234 96.6562 681.617 97.4922 680.602 99.1641C679.586 100.836 679.062 103.406 679.031 106.875V113.812C679.031 117.5 679.562 120.227 680.625 121.992C681.703 123.742 683.328 124.617 685.5 124.617C687.641 124.617 689.227 123.789 690.258 122.133C691.305 120.477 691.852 117.867 691.898 114.305V107.203ZM718.805 93.5391V97.2188H718.008C714.633 97.2812 711.945 98.2812 709.945 100.219C707.945 102.156 706.789 104.883 706.477 108.398C708.273 106.336 710.727 105.305 713.836 105.305C716.805 105.305 719.172 106.352 720.938 108.445C722.719 110.539 723.609 113.242 723.609 116.555C723.609 120.07 722.648 122.883 720.727 124.992C718.82 127.102 716.258 128.156 713.039 128.156C709.773 128.156 707.125 126.906 705.094 124.406C703.062 121.891 702.047 118.656 702.047 114.703V113.039C702.047 106.758 703.383 101.961 706.055 98.6484C708.742 95.3203 712.734 93.6172 718.031 93.5391H718.805ZM713.109 108.914C711.625 108.914 710.258 109.359 709.008 110.25C707.758 111.141 706.891 112.258 706.406 113.602V115.195C706.406 118.008 707.039 120.273 708.305 121.992C709.57 123.711 711.148 124.57 713.039 124.57C714.992 124.57 716.523 123.852 717.633 122.414C718.758 120.977 719.32 119.094 719.32 116.766C719.32 114.422 718.75 112.531 717.609 111.094C716.484 109.641 714.984 108.914 713.109 108.914Z" fill="#0B5CB5"/>
<path d="M868.999 189.512C868.999 207.321 853.473 221.758 834.32 221.758C815.167 221.758 799.645 207.321 799.645 189.512C799.645 171.704 815.167 157.267 834.32 157.267C853.473 157.267 868.999 171.704 868.999 189.512Z" fill="url(#paint19_radial)"/>
<path d="M861.358 182.88C861.358 200.688 845.832 215.125 826.679 215.125C807.526 215.125 792 200.688 792 182.88C792 165.074 807.526 150.634 826.679 150.634C845.832 150.634 861.358 165.074 861.358 182.88Z" fill="#EFEFEF"/>
<path d="M826.234 186.586C826.234 191.664 825.367 195.438 823.633 197.906C821.898 200.375 819.188 201.609 815.5 201.609C811.859 201.609 809.164 200.406 807.414 198C805.664 195.578 804.758 191.969 804.695 187.172V181.383C804.695 176.367 805.562 172.641 807.297 170.203C809.031 167.766 811.75 166.547 815.453 166.547C819.125 166.547 821.828 167.727 823.562 170.086C825.297 172.43 826.188 176.055 826.234 180.961V186.586ZM821.898 180.656C821.898 176.984 821.383 174.312 820.352 172.641C819.32 170.953 817.688 170.109 815.453 170.109C813.234 170.109 811.617 170.945 810.602 172.617C809.586 174.289 809.062 176.859 809.031 180.328V187.266C809.031 190.953 809.562 193.68 810.625 195.445C811.703 197.195 813.328 198.07 815.5 198.07C817.641 198.07 819.227 197.242 820.258 195.586C821.305 193.93 821.852 191.32 821.898 187.758V180.656ZM853.82 169.453L839.688 201.141H835.141L849.227 170.578H830.758V167.016H853.82V169.453Z" fill="#0B5CB5"/>
<defs>
<linearGradient id="paint0_linear" x1="35.4127" y1="457.959" x2="35.4127" y2="92.5334" gradientUnits="userSpaceOnUse">
<stop stop-color="#1EA7D6"/>
<stop offset="1" stop-color="#FDFEFF"/>
</linearGradient>
<linearGradient id="paint1_linear" x1="243.799" y1="406.526" x2="243.799" y2="197.448" gradientUnits="userSpaceOnUse">
<stop stop-color="#FDFEFF"/>
<stop offset="1" stop-color="#FDFEFF"/>
</linearGradient>
<linearGradient id="paint2_linear" x1="452.189" y1="457.959" x2="452.189" y2="92.5324" gradientUnits="userSpaceOnUse">
<stop stop-color="#1EA7D6"/>
<stop offset="1" stop-color="#FDFEFF"/>
</linearGradient>
<linearGradient id="paint3_linear" x1="313.262" y1="457.959" x2="313.262" y2="92.533" gradientUnits="userSpaceOnUse">
<stop stop-color="#1EA7D6"/>
<stop offset="1" stop-color="#FDFEFF"/>
</linearGradient>
<linearGradient id="paint4_linear" x1="382.726" y1="406.526" x2="382.726" y2="197.448" gradientUnits="userSpaceOnUse">
<stop stop-color="#FDFEFF"/>
<stop offset="1" stop-color="#FDFEFF"/>
</linearGradient>
<linearGradient id="paint5_linear" x1="104.88" y1="406.526" x2="104.88" y2="197.448" gradientUnits="userSpaceOnUse">
<stop stop-color="#FDFEFF"/>
<stop offset="1" stop-color="#FDFEFF"/>
</linearGradient>
<linearGradient id="paint6_linear" x1="177.501" y1="459.458" x2="177.501" y2="87.7334" gradientUnits="userSpaceOnUse">
<stop stop-color="#1EA7D6"/>
<stop offset="1" stop-color="#FDFEFF"/>
</linearGradient>
<linearGradient id="paint7_linear" x1="799.498" y1="406.526" x2="799.498" y2="197.448" gradientUnits="userSpaceOnUse">
<stop stop-color="#FDFEFF"/>
<stop offset="1" stop-color="#FDFEFF"/>
</linearGradient>
<linearGradient id="paint8_linear" x1="521.648" y1="406.526" x2="521.648" y2="197.448" gradientUnits="userSpaceOnUse">
<stop stop-color="#FDFEFF"/>
<stop offset="1" stop-color="#FDFEFF"/>
</linearGradient>
<linearGradient id="paint9_linear" x1="730.035" y1="457.959" x2="730.035" y2="92.5344" gradientUnits="userSpaceOnUse">
<stop stop-color="#1EA7D6"/>
<stop offset="1" stop-color="#FDFEFF"/>
</linearGradient>
<linearGradient id="paint10_linear" x1="868.961" y1="457.959" x2="868.961" y2="92.5328" gradientUnits="userSpaceOnUse">
<stop stop-color="#1EA7D6"/>
<stop offset="1" stop-color="#FDFEFF"/>
</linearGradient>
<linearGradient id="paint11_linear" x1="591.112" y1="457.959" x2="591.112" y2="92.5317" gradientUnits="userSpaceOnUse">
<stop stop-color="#1EA7D6"/>
<stop offset="1" stop-color="#FDFEFF"/>
</linearGradient>
<linearGradient id="paint12_linear" x1="660.575" y1="406.526" x2="660.575" y2="197.448" gradientUnits="userSpaceOnUse">
<stop stop-color="#FDFEFF"/>
<stop offset="1" stop-color="#FDFEFF"/>
</linearGradient>
<linearGradient id="paint13_linear" x1="0.681418" y1="195.401" x2="973.157" y2="195.401" gradientUnits="userSpaceOnUse">
<stop stop-color="#069EFC"/>
<stop offset="1" stop-color="#14F4C9"/>
</linearGradient>
<radialGradient id="paint14_radial" cx="0" cy="0" r="1" gradientUnits="userSpaceOnUse" gradientTransform="translate(144.325 122.567) scale(34.6785 32.245)">
<stop/>
<stop offset="1" stop-color="white"/>
</radialGradient>
<radialGradient id="paint15_radial" cx="0" cy="0" r="1" gradientUnits="userSpaceOnUse" gradientTransform="translate(286.321 133.723) scale(34.6785 32.245)">
<stop/>
<stop offset="1" stop-color="white"/>
</radialGradient>
<radialGradient id="paint16_radial" cx="0" cy="0" r="1" gradientUnits="userSpaceOnUse" gradientTransform="translate(564.321 38.8793) scale(34.6785 32.245)">
<stop/>
<stop offset="1" stop-color="white"/>
</radialGradient>
<radialGradient id="paint17_radial" cx="0" cy="0" r="1" gradientUnits="userSpaceOnUse" gradientTransform="translate(635.321 249.02) scale(34.6785 32.245)">
<stop/>
<stop offset="1" stop-color="white"/>
</radialGradient>
<radialGradient id="paint18_radial" cx="0" cy="0" r="1" gradientUnits="userSpaceOnUse" gradientTransform="translate(704.321 116.059) scale(34.6785 32.245)">
<stop/>
<stop offset="1" stop-color="white"/>
</radialGradient>
<radialGradient id="paint19_radial" cx="0" cy="0" r="1" gradientUnits="userSpaceOnUse" gradientTransform="translate(834.321 189.512) scale(34.6785 32.245)">
<stop/>
<stop offset="1" stop-color="white"/>
</radialGradient>
</defs>
</svg>
