<svg width="191" height="59" viewBox="0 0 191 59" fill="none" xmlns="http://www.w3.org/2000/svg">
<path d="M37.391 41.291L15.281 41.552L4 22.54L14.829 3.261L36.939 3L48.22 22.017L37.391 41.291Z" stroke="white" stroke-width="5.675"/>
<path d="M66.5938 32.5195C66.5938 31.8555 66.3594 31.3477 65.8906 30.9961C65.4219 30.6367 64.5781 30.2617 63.3594 29.8711C62.1406 29.4727 61.1758 29.082 60.4648 28.6992C58.5273 27.6523 57.5586 26.2422 57.5586 24.4688C57.5586 23.5469 57.8164 22.7266 58.332 22.0078C58.8555 21.2812 59.6016 20.7148 60.5703 20.3086C61.5469 19.9023 62.6406 19.6992 63.8516 19.6992C65.0703 19.6992 66.1562 19.9219 67.1094 20.3672C68.0625 20.8047 68.8008 21.4258 69.3242 22.2305C69.8555 23.0352 70.1211 23.9492 70.1211 24.9727H66.6055C66.6055 24.1914 66.3594 23.5859 65.8672 23.1562C65.375 22.7188 64.6836 22.5 63.793 22.5C62.9336 22.5 62.2656 22.6836 61.7891 23.0508C61.3125 23.4102 61.0742 23.8867 61.0742 24.4805C61.0742 25.0352 61.3516 25.5 61.9062 25.875C62.4688 26.25 63.293 26.6016 64.3789 26.9297C66.3789 27.5312 67.8359 28.2773 68.75 29.168C69.6641 30.0586 70.1211 31.168 70.1211 32.4961C70.1211 33.9727 69.5625 35.1328 68.4453 35.9766C67.3281 36.8125 65.8242 37.2305 63.9336 37.2305C62.6211 37.2305 61.4258 36.9922 60.3477 36.5156C59.2695 36.0312 58.4453 35.3711 57.875 34.5352C57.3125 33.6992 57.0312 32.7305 57.0312 31.6289H60.5586C60.5586 33.5117 61.6836 34.4531 63.9336 34.4531C64.7695 34.4531 65.4219 34.2852 65.8906 33.9492C66.3594 33.6055 66.5938 33.1289 66.5938 32.5195ZM86.5273 28.8516C86.5273 30.5312 86.2305 32.0039 85.6367 33.2695C85.043 34.5352 84.1914 35.5117 83.082 36.1992C81.9805 36.8867 80.7148 37.2305 79.2852 37.2305C77.8711 37.2305 76.6094 36.8906 75.5 36.2109C74.3906 35.5312 73.5312 34.5625 72.9219 33.3047C72.3125 32.0391 72.0039 30.5859 71.9961 28.9453V28.1016C71.9961 26.4219 72.2969 24.9453 72.8984 23.6719C73.5078 22.3906 74.3633 21.4102 75.4648 20.7305C76.5742 20.043 77.8398 19.6992 79.2617 19.6992C80.6836 19.6992 81.9453 20.043 83.0469 20.7305C84.1562 21.4102 85.0117 22.3906 85.6133 23.6719C86.2227 24.9453 86.5273 26.418 86.5273 28.0898V28.8516ZM82.9648 28.0781C82.9648 26.2891 82.6445 24.9297 82.0039 24C81.3633 23.0703 80.4492 22.6055 79.2617 22.6055C78.082 22.6055 77.1719 23.0664 76.5312 23.9883C75.8906 24.9023 75.5664 26.2461 75.5586 28.0195V28.8516C75.5586 30.5938 75.8789 31.9453 76.5195 32.9062C77.1602 33.8672 78.082 34.3477 79.2852 34.3477C80.4648 34.3477 81.3711 33.8867 82.0039 32.9648C82.6367 32.0352 82.957 30.6836 82.9648 28.9102V28.0781ZM99.3477 30.0234H92.5977V36.9961H89.082V19.9336H100.191V22.7812H92.5977V27.1875H99.3477V30.0234ZM115.309 22.7812H110.082V36.9961H106.566V22.7812H101.41V19.9336H115.309V22.7812Z" fill="white"/>
<path d="M121.918 19.9336L126.301 32.3086L130.66 19.9336H135.277V36.9961H131.75V32.332L132.102 24.2812L127.496 36.9961H125.082L120.488 24.293L120.84 32.332V36.9961H117.324V19.9336H121.918ZM148.613 29.6016H141.863V34.1719H149.785V36.9961H138.348V19.9336H149.762V22.7812H141.863V26.8477H148.613V29.6016ZM151.848 36.9961V19.9336H157.098C158.598 19.9336 159.938 20.2734 161.117 20.9531C162.305 21.625 163.23 22.5859 163.895 23.8359C164.559 25.0781 164.891 26.4922 164.891 28.0781V28.8633C164.891 30.4492 164.562 31.8594 163.906 33.0938C163.258 34.3281 162.34 35.2852 161.152 35.9648C159.965 36.6445 158.625 36.9883 157.133 36.9961H151.848ZM155.363 22.7812V34.1719H157.062C158.438 34.1719 159.488 33.7227 160.215 32.8242C160.941 31.9258 161.312 30.6406 161.328 28.9688V28.0664C161.328 26.332 160.969 25.0195 160.25 24.1289C159.531 23.2305 158.48 22.7812 157.098 22.7812H155.363ZM171.195 36.9961H167.68V19.9336H171.195V36.9961ZM184.309 33.4805H178.145L176.973 36.9961H173.234L179.586 19.9336H182.844L189.23 36.9961H185.492L184.309 33.4805ZM179.094 30.6328H183.359L181.215 24.2461L179.094 30.6328Z" fill="#1EA7D6"/>
<path d="M37.392 55.4757L15.282 55.7367L4 36.7197L14.829 17.4407L36.939 17.1797L48.22 36.1967L37.392 55.4757Z" stroke="#1EA7D6" stroke-width="5.675"/>
</svg>
